<svg width="24" height="24" viewBox="0 0 24 24" fill="none" xmlns="http://www.w3.org/2000/svg">
<mask id="mask0_3910_8309" style="mask-type:alpha" maskUnits="userSpaceOnUse" x="0" y="0" width="24" height="24">
<rect width="24" height="24" fill="#D9D9D9"/>
</mask>
<g mask="url(#mask0_3910_8309)">
<path d="M2.83154 14.5479C2.69574 14.5479 2.5769 14.4969 2.47505 14.3951C2.37319 14.2932 2.32227 14.1744 2.32227 14.0386C2.32227 13.9028 2.37319 13.7839 2.47505 13.6821C2.5769 13.5802 2.69574 13.5293 2.83154 13.5293C2.96735 13.5293 3.08618 13.5802 3.18804 13.6821C3.28989 13.7839 3.34082 13.9028 3.34082 14.0386C3.34082 14.1744 3.28989 14.2932 3.18804 14.3951C3.08618 14.4969 2.96735 14.5479 2.83154 14.5479ZM2.83154 10.4736C2.69574 10.4736 2.5769 10.4227 2.47505 10.3209C2.37319 10.219 2.32227 10.1002 2.32227 9.96436C2.32227 9.82855 2.37319 9.70972 2.47505 9.60786C2.5769 9.50601 2.69574 9.45508 2.83154 9.45508C2.96735 9.45508 3.08618 9.50601 3.18804 9.60786C3.28989 9.70972 3.34082 9.82855 3.34082 9.96436C3.34082 10.1002 3.28989 10.219 3.18804 10.3209C3.08618 10.4227 2.96735 10.4736 2.83154 10.4736ZM5.88721 19.1313C5.59862 19.1313 5.35671 19.0337 5.16149 18.8385C4.96626 18.6433 4.86865 18.4014 4.86865 18.1128C4.86865 17.8242 4.96626 17.5823 5.16149 17.3871C5.35671 17.1919 5.59862 17.0942 5.88721 17.0942C6.1758 17.0942 6.41771 17.1919 6.61293 17.3871C6.80815 17.5823 6.90576 17.8242 6.90576 18.1128C6.90576 18.4014 6.80815 18.6433 6.61293 18.8385C6.41771 19.0337 6.1758 19.1313 5.88721 19.1313ZM5.88721 15.0571C5.59862 15.0571 5.35671 14.9595 5.16149 14.7643C4.96626 14.5691 4.86865 14.3272 4.86865 14.0386C4.86865 13.75 4.96626 13.5081 5.16149 13.3129C5.35671 13.1176 5.59862 13.02 5.88721 13.02C6.1758 13.02 6.41771 13.1176 6.61293 13.3129C6.80815 13.5081 6.90576 13.75 6.90576 14.0386C6.90576 14.3272 6.80815 14.5691 6.61293 14.7643C6.41771 14.9595 6.1758 15.0571 5.88721 15.0571ZM5.88721 10.9829C5.59862 10.9829 5.35671 10.8853 5.16149 10.6901C4.96626 10.4949 4.86865 10.2529 4.86865 9.96436C4.86865 9.67577 4.96626 9.43386 5.16149 9.23864C5.35671 9.04341 5.59862 8.9458 5.88721 8.9458C6.1758 8.9458 6.41771 9.04341 6.61293 9.23864C6.80815 9.43386 6.90576 9.67577 6.90576 9.96436C6.90576 10.2529 6.80815 10.4949 6.61293 10.6901C6.41771 10.8853 6.1758 10.9829 5.88721 10.9829ZM5.88721 6.90869C5.59862 6.90869 5.35671 6.81108 5.16149 6.61586C4.96626 6.42063 4.86865 6.17873 4.86865 5.89014C4.86865 5.60155 4.96626 5.35964 5.16149 5.16442C5.35671 4.96919 5.59862 4.87158 5.88721 4.87158C6.1758 4.87158 6.41771 4.96919 6.61293 5.16442C6.80815 5.35964 6.90576 5.60155 6.90576 5.89014C6.90576 6.17873 6.80815 6.42063 6.61293 6.61586C6.41771 6.81108 6.1758 6.90869 5.88721 6.90869ZM9.96143 15.5664C9.53703 15.5664 9.17629 15.4179 8.87921 15.1208C8.58213 14.8237 8.43359 14.463 8.43359 14.0386C8.43359 13.6142 8.58213 13.2534 8.87921 12.9564C9.17629 12.6593 9.53703 12.5107 9.96143 12.5107C10.3858 12.5107 10.7466 12.6593 11.0436 12.9564C11.3407 13.2534 11.4893 13.6142 11.4893 14.0386C11.4893 14.463 11.3407 14.8237 11.0436 15.1208C10.7466 15.4179 10.3858 15.5664 9.96143 15.5664ZM9.96143 11.4922C9.53703 11.4922 9.17629 11.3436 8.87921 11.0466C8.58213 10.7495 8.43359 10.3888 8.43359 9.96436C8.43359 9.53996 8.58213 9.17922 8.87921 8.88214C9.17629 8.58506 9.53703 8.43652 9.96143 8.43652C10.3858 8.43652 10.7466 8.58506 11.0436 8.88214C11.3407 9.17922 11.4893 9.53996 11.4893 9.96436C11.4893 10.3888 11.3407 10.7495 11.0436 11.0466C10.7466 11.3436 10.3858 11.4922 9.96143 11.4922ZM9.96143 19.1313C9.67284 19.1313 9.43093 19.0337 9.23571 18.8385C9.04048 18.6433 8.94287 18.4014 8.94287 18.1128C8.94287 17.8242 9.04048 17.5823 9.23571 17.3871C9.43093 17.1919 9.67284 17.0942 9.96143 17.0942C10.25 17.0942 10.4919 17.1919 10.6871 17.3871C10.8824 17.5823 10.98 17.8242 10.98 18.1128C10.98 18.4014 10.8824 18.6433 10.6871 18.8385C10.4919 19.0337 10.25 19.1313 9.96143 19.1313ZM9.96143 6.90869C9.67284 6.90869 9.43093 6.81108 9.23571 6.61586C9.04048 6.42063 8.94287 6.17873 8.94287 5.89014C8.94287 5.60155 9.04048 5.35964 9.23571 5.16442C9.43093 4.96919 9.67284 4.87158 9.96143 4.87158C10.25 4.87158 10.4919 4.96919 10.6871 5.16442C10.8824 5.35964 10.98 5.60155 10.98 5.89014C10.98 6.17873 10.8824 6.42063 10.6871 6.61586C10.4919 6.81108 10.25 6.90869 9.96143 6.90869ZM9.96143 21.6777C9.82562 21.6777 9.70679 21.6268 9.60493 21.525C9.50308 21.4231 9.45215 21.3043 9.45215 21.1685C9.45215 21.0327 9.50308 20.9138 9.60493 20.812C9.70679 20.7101 9.82562 20.6592 9.96143 20.6592C10.0972 20.6592 10.2161 20.7101 10.3179 20.812C10.4198 20.9138 10.4707 21.0327 10.4707 21.1685C10.4707 21.3043 10.4198 21.4231 10.3179 21.525C10.2161 21.6268 10.0972 21.6777 9.96143 21.6777ZM9.96143 3.34375C9.82562 3.34375 9.70679 3.29282 9.60493 3.19097C9.50308 3.08911 9.45215 2.97028 9.45215 2.83447C9.45215 2.69867 9.50308 2.57983 9.60493 2.47798C9.70679 2.37612 9.82562 2.3252 9.96143 2.3252C10.0972 2.3252 10.2161 2.37612 10.3179 2.47798C10.4198 2.57983 10.4707 2.69867 10.4707 2.83447C10.4707 2.97028 10.4198 3.08911 10.3179 3.19097C10.2161 3.29282 10.0972 3.34375 9.96143 3.34375ZM14.0356 15.5664C13.6112 15.5664 13.2505 15.4179 12.9534 15.1208C12.6564 14.8237 12.5078 14.463 12.5078 14.0386C12.5078 13.6142 12.6564 13.2534 12.9534 12.9564C13.2505 12.6593 13.6112 12.5107 14.0356 12.5107C14.46 12.5107 14.8208 12.6593 15.1179 12.9564C15.4149 13.2534 15.5635 13.6142 15.5635 14.0386C15.5635 14.463 15.4149 14.8237 15.1179 15.1208C14.8208 15.4179 14.46 15.5664 14.0356 15.5664ZM14.0356 11.4922C13.6112 11.4922 13.2505 11.3436 12.9534 11.0466C12.6564 10.7495 12.5078 10.3888 12.5078 9.96436C12.5078 9.53996 12.6564 9.17922 12.9534 8.88214C13.2505 8.58506 13.6112 8.43652 14.0356 8.43652C14.46 8.43652 14.8208 8.58506 15.1179 8.88214C15.4149 9.17922 15.5635 9.53996 15.5635 9.96436C15.5635 10.3888 15.4149 10.7495 15.1179 11.0466C14.8208 11.3436 14.46 11.4922 14.0356 11.4922ZM14.0356 19.1313C13.7471 19.1313 13.5051 19.0337 13.3099 18.8385C13.1147 18.6433 13.0171 18.4014 13.0171 18.1128C13.0171 17.8242 13.1147 17.5823 13.3099 17.3871C13.5051 17.1919 13.7471 17.0942 14.0356 17.0942C14.3242 17.0942 14.5661 17.1919 14.7614 17.3871C14.9566 17.5823 15.0542 17.8242 15.0542 18.1128C15.0542 18.4014 14.9566 18.6433 14.7614 18.8385C14.5661 19.0337 14.3242 19.1313 14.0356 19.1313ZM14.0356 6.90869C13.7471 6.90869 13.5051 6.81108 13.3099 6.61586C13.1147 6.42063 13.0171 6.17873 13.0171 5.89014C13.0171 5.60155 13.1147 5.35964 13.3099 5.16442C13.5051 4.96919 13.7471 4.87158 14.0356 4.87158C14.3242 4.87158 14.5661 4.96919 14.7614 5.16442C14.9566 5.35964 15.0542 5.60155 15.0542 5.89014C15.0542 6.17873 14.9566 6.42063 14.7614 6.61586C14.5661 6.81108 14.3242 6.90869 14.0356 6.90869ZM14.0356 21.6777C13.8998 21.6777 13.781 21.6268 13.6792 21.525C13.5773 21.4231 13.5264 21.3043 13.5264 21.1685C13.5264 21.0327 13.5773 20.9138 13.6792 20.812C13.781 20.7101 13.8998 20.6592 14.0356 20.6592C14.1715 20.6592 14.2903 20.7101 14.3921 20.812C14.494 20.9138 14.5449 21.0327 14.5449 21.1685C14.5449 21.3043 14.494 21.4231 14.3921 21.525C14.2903 21.6268 14.1715 21.6777 14.0356 21.6777ZM14.0356 3.34375C13.8998 3.34375 13.781 3.29282 13.6792 3.19097C13.5773 3.08911 13.5264 2.97028 13.5264 2.83447C13.5264 2.69867 13.5773 2.57983 13.6792 2.47798C13.781 2.37612 13.8998 2.3252 14.0356 2.3252C14.1715 2.3252 14.2903 2.37612 14.3921 2.47798C14.494 2.57983 14.5449 2.69867 14.5449 2.83447C14.5449 2.97028 14.494 3.08911 14.3921 3.19097C14.2903 3.29282 14.1715 3.34375 14.0356 3.34375ZM18.1099 19.1313C17.8213 19.1313 17.5794 19.0337 17.3841 18.8385C17.1889 18.6433 17.0913 18.4014 17.0913 18.1128C17.0913 17.8242 17.1889 17.5823 17.3841 17.3871C17.5794 17.1919 17.8213 17.0942 18.1099 17.0942C18.3985 17.0942 18.6404 17.1919 18.8356 17.3871C19.0308 17.5823 19.1284 17.8242 19.1284 18.1128C19.1284 18.4014 19.0308 18.6433 18.8356 18.8385C18.6404 19.0337 18.3985 19.1313 18.1099 19.1313ZM18.1099 15.0571C17.8213 15.0571 17.5794 14.9595 17.3841 14.7643C17.1889 14.5691 17.0913 14.3272 17.0913 14.0386C17.0913 13.75 17.1889 13.5081 17.3841 13.3129C17.5794 13.1176 17.8213 13.02 18.1099 13.02C18.3985 13.02 18.6404 13.1176 18.8356 13.3129C19.0308 13.5081 19.1284 13.75 19.1284 14.0386C19.1284 14.3272 19.0308 14.5691 18.8356 14.7643C18.6404 14.9595 18.3985 15.0571 18.1099 15.0571ZM18.1099 10.9829C17.8213 10.9829 17.5794 10.8853 17.3841 10.6901C17.1889 10.4949 17.0913 10.2529 17.0913 9.96436C17.0913 9.67577 17.1889 9.43386 17.3841 9.23864C17.5794 9.04341 17.8213 8.9458 18.1099 8.9458C18.3985 8.9458 18.6404 9.04341 18.8356 9.23864C19.0308 9.43386 19.1284 9.67577 19.1284 9.96436C19.1284 10.2529 19.0308 10.4949 18.8356 10.6901C18.6404 10.8853 18.3985 10.9829 18.1099 10.9829ZM18.1099 6.90869C17.8213 6.90869 17.5794 6.81108 17.3841 6.61586C17.1889 6.42063 17.0913 6.17873 17.0913 5.89014C17.0913 5.60155 17.1889 5.35964 17.3841 5.16442C17.5794 4.96919 17.8213 4.87158 18.1099 4.87158C18.3985 4.87158 18.6404 4.96919 18.8356 5.16442C19.0308 5.35964 19.1284 5.60155 19.1284 5.89014C19.1284 6.17873 19.0308 6.42063 18.8356 6.61586C18.6404 6.81108 18.3985 6.90869 18.1099 6.90869ZM21.1655 14.5479C21.0297 14.5479 20.9109 14.4969 20.809 14.3951C20.7072 14.2932 20.6563 14.1744 20.6563 14.0386C20.6563 13.9028 20.7072 13.7839 20.809 13.6821C20.9109 13.5802 21.0297 13.5293 21.1655 13.5293C21.3013 13.5293 21.4202 13.5802 21.522 13.6821C21.6239 13.7839 21.6748 13.9028 21.6748 14.0386C21.6748 14.1744 21.6239 14.2932 21.522 14.3951C21.4202 14.4969 21.3013 14.5479 21.1655 14.5479ZM21.1655 10.4736C21.0297 10.4736 20.9109 10.4227 20.809 10.3209C20.7072 10.219 20.6563 10.1002 20.6563 9.96436C20.6563 9.82855 20.7072 9.70972 20.809 9.60786C20.9109 9.50601 21.0297 9.45508 21.1655 9.45508C21.3013 9.45508 21.4202 9.50601 21.522 9.60786C21.6239 9.70972 21.6748 9.82855 21.6748 9.96436C21.6748 10.1002 21.6239 10.219 21.522 10.3209C21.4202 10.4227 21.3013 10.4736 21.1655 10.4736Z" fill="#666666"/>
</g>
</svg>
