<svg width="41" height="40" viewBox="0 0 41 40" fill="none" xmlns="http://www.w3.org/2000/svg">
<mask id="mask0_2662_3670" style="mask-type:alpha" maskUnits="userSpaceOnUse" x="0" y="0" width="41" height="40">
<rect x="0.935059" width="40" height="40" fill="#D9D9D9"/>
</mask>
<g mask="url(#mask0_2662_3670)">
<path d="M5.93511 24.166C5.71289 24.166 5.51844 24.0827 5.35178 23.916C5.18511 23.7493 5.10178 23.5549 5.10178 23.3327C5.10178 23.1105 5.18511 22.916 5.35178 22.7494C5.51844 22.5827 5.71289 22.4993 5.93511 22.4993C6.15733 22.4993 6.35178 22.5827 6.51844 22.7494C6.68511 22.916 6.76844 23.1105 6.76844 23.3327C6.76844 23.5549 6.68511 23.7493 6.51844 23.916C6.35178 24.0827 6.15733 24.166 5.93511 24.166ZM5.93511 17.4993C5.71289 17.4993 5.51844 17.416 5.35178 17.2493C5.18511 17.0827 5.10178 16.8882 5.10178 16.666C5.10178 16.4438 5.18511 16.2493 5.35178 16.0827C5.51844 15.916 5.71289 15.8327 5.93511 15.8327C6.15733 15.8327 6.35178 15.916 6.51844 16.0827C6.68511 16.2493 6.76844 16.4438 6.76844 16.666C6.76844 16.8882 6.68511 17.0827 6.51844 17.2493C6.35178 17.416 6.15733 17.4993 5.93511 17.4993ZM10.9351 31.666C10.4629 31.666 10.0671 31.5063 9.74761 31.1868C9.42817 30.8674 9.26844 30.4716 9.26844 29.9993C9.26844 29.5271 9.42817 29.1313 9.74761 28.8119C10.0671 28.4924 10.4629 28.3327 10.9351 28.3327C11.4073 28.3327 11.8032 28.4924 12.1226 28.8119C12.4421 29.1313 12.6018 29.5271 12.6018 29.9993C12.6018 30.4716 12.4421 30.8674 12.1226 31.1868C11.8032 31.5063 11.4073 31.666 10.9351 31.666ZM10.9351 24.9993C10.4629 24.9993 10.0671 24.8396 9.74761 24.5202C9.42817 24.2007 9.26844 23.8049 9.26844 23.3327C9.26844 22.8605 9.42817 22.4646 9.74761 22.1452C10.0671 21.8257 10.4629 21.666 10.9351 21.666C11.4073 21.666 11.8032 21.8257 12.1226 22.1452C12.4421 22.4646 12.6018 22.8605 12.6018 23.3327C12.6018 23.8049 12.4421 24.2007 12.1226 24.5202C11.8032 24.8396 11.4073 24.9993 10.9351 24.9993ZM10.9351 18.3327C10.4629 18.3327 10.0671 18.173 9.74761 17.8535C9.42817 17.5341 9.26844 17.1382 9.26844 16.666C9.26844 16.1938 9.42817 15.798 9.74761 15.4785C10.0671 15.1591 10.4629 14.9993 10.9351 14.9993C11.4073 14.9993 11.8032 15.1591 12.1226 15.4785C12.4421 15.798 12.6018 16.1938 12.6018 16.666C12.6018 17.1382 12.4421 17.5341 12.1226 17.8535C11.8032 18.173 11.4073 18.3327 10.9351 18.3327ZM10.9351 11.666C10.4629 11.666 10.0671 11.5063 9.74761 11.1868C9.42817 10.8674 9.26844 10.4716 9.26844 9.99935C9.26844 9.52713 9.42817 9.13129 9.74761 8.81185C10.0671 8.4924 10.4629 8.33268 10.9351 8.33268C11.4073 8.33268 11.8032 8.4924 12.1226 8.81185C12.4421 9.13129 12.6018 9.52713 12.6018 9.99935C12.6018 10.4716 12.4421 10.8674 12.1226 11.1868C11.8032 11.5063 11.4073 11.666 10.9351 11.666ZM17.6018 25.8327C16.9073 25.8327 16.3171 25.5896 15.8309 25.1035C15.3448 24.6174 15.1018 24.0271 15.1018 23.3327C15.1018 22.6382 15.3448 22.048 15.8309 21.5618C16.3171 21.0757 16.9073 20.8327 17.6018 20.8327C18.2962 20.8327 18.8865 21.0757 19.3726 21.5618C19.8587 22.048 20.1018 22.6382 20.1018 23.3327C20.1018 24.0271 19.8587 24.6174 19.3726 25.1035C18.8865 25.5896 18.2962 25.8327 17.6018 25.8327ZM17.6018 19.166C16.9073 19.166 16.3171 18.923 15.8309 18.4368C15.3448 17.9507 15.1018 17.3605 15.1018 16.666C15.1018 15.9716 15.3448 15.3813 15.8309 14.8952C16.3171 14.4091 16.9073 14.166 17.6018 14.166C18.2962 14.166 18.8865 14.4091 19.3726 14.8952C19.8587 15.3813 20.1018 15.9716 20.1018 16.666C20.1018 17.3605 19.8587 17.9507 19.3726 18.4368C18.8865 18.923 18.2962 19.166 17.6018 19.166ZM17.6018 31.666C17.1296 31.666 16.7337 31.5063 16.4143 31.1868C16.0948 30.8674 15.9351 30.4716 15.9351 29.9993C15.9351 29.5271 16.0948 29.1313 16.4143 28.8119C16.7337 28.4924 17.1296 28.3327 17.6018 28.3327C18.074 28.3327 18.4698 28.4924 18.7893 28.8119C19.1087 29.1313 19.2684 29.5271 19.2684 29.9993C19.2684 30.4716 19.1087 30.8674 18.7893 31.1868C18.4698 31.5063 18.074 31.666 17.6018 31.666ZM17.6018 11.666C17.1296 11.666 16.7337 11.5063 16.4143 11.1868C16.0948 10.8674 15.9351 10.4716 15.9351 9.99935C15.9351 9.52713 16.0948 9.13129 16.4143 8.81185C16.7337 8.4924 17.1296 8.33268 17.6018 8.33268C18.074 8.33268 18.4698 8.4924 18.7893 8.81185C19.1087 9.13129 19.2684 9.52713 19.2684 9.99935C19.2684 10.4716 19.1087 10.8674 18.7893 11.1868C18.4698 11.5063 18.074 11.666 17.6018 11.666ZM17.6018 35.8327C17.3796 35.8327 17.1851 35.7494 17.0184 35.5827C16.8518 35.416 16.7684 35.2216 16.7684 34.9993C16.7684 34.7771 16.8518 34.5827 17.0184 34.416C17.1851 34.2493 17.3796 34.166 17.6018 34.166C17.824 34.166 18.0184 34.2493 18.1851 34.416C18.3518 34.5827 18.4351 34.7771 18.4351 34.9993C18.4351 35.2216 18.3518 35.416 18.1851 35.5827C18.0184 35.7494 17.824 35.8327 17.6018 35.8327ZM17.6018 5.83268C17.3796 5.83268 17.1851 5.74935 17.0184 5.58268C16.8518 5.41602 16.7684 5.22157 16.7684 4.99935C16.7684 4.77713 16.8518 4.58268 17.0184 4.41602C17.1851 4.24935 17.3796 4.16602 17.6018 4.16602C17.824 4.16602 18.0184 4.24935 18.1851 4.41602C18.3518 4.58268 18.4351 4.77713 18.4351 4.99935C18.4351 5.22157 18.3518 5.41602 18.1851 5.58268C18.0184 5.74935 17.824 5.83268 17.6018 5.83268ZM24.2684 25.8327C23.574 25.8327 22.9837 25.5896 22.4976 25.1035C22.0115 24.6174 21.7684 24.0271 21.7684 23.3327C21.7684 22.6382 22.0115 22.048 22.4976 21.5618C22.9837 21.0757 23.574 20.8327 24.2684 20.8327C24.9629 20.8327 25.5532 21.0757 26.0393 21.5618C26.5254 22.048 26.7684 22.6382 26.7684 23.3327C26.7684 24.0271 26.5254 24.6174 26.0393 25.1035C25.5532 25.5896 24.9629 25.8327 24.2684 25.8327ZM24.2684 19.166C23.574 19.166 22.9837 18.923 22.4976 18.4368C22.0115 17.9507 21.7684 17.3605 21.7684 16.666C21.7684 15.9716 22.0115 15.3813 22.4976 14.8952C22.9837 14.4091 23.574 14.166 24.2684 14.166C24.9629 14.166 25.5532 14.4091 26.0393 14.8952C26.5254 15.3813 26.7684 15.9716 26.7684 16.666C26.7684 17.3605 26.5254 17.9507 26.0393 18.4368C25.5532 18.923 24.9629 19.166 24.2684 19.166ZM24.2684 31.666C23.7962 31.666 23.4004 31.5063 23.0809 31.1868C22.7615 30.8674 22.6018 30.4716 22.6018 29.9993C22.6018 29.5271 22.7615 29.1313 23.0809 28.8119C23.4004 28.4924 23.7962 28.3327 24.2684 28.3327C24.7407 28.3327 25.1365 28.4924 25.4559 28.8119C25.7754 29.1313 25.9351 29.5271 25.9351 29.9993C25.9351 30.4716 25.7754 30.8674 25.4559 31.1868C25.1365 31.5063 24.7407 31.666 24.2684 31.666ZM24.2684 11.666C23.7962 11.666 23.4004 11.5063 23.0809 11.1868C22.7615 10.8674 22.6018 10.4716 22.6018 9.99935C22.6018 9.52713 22.7615 9.13129 23.0809 8.81185C23.4004 8.4924 23.7962 8.33268 24.2684 8.33268C24.7407 8.33268 25.1365 8.4924 25.4559 8.81185C25.7754 9.13129 25.9351 9.52713 25.9351 9.99935C25.9351 10.4716 25.7754 10.8674 25.4559 11.1868C25.1365 11.5063 24.7407 11.666 24.2684 11.666ZM24.2684 35.8327C24.0462 35.8327 23.8518 35.7494 23.6851 35.5827C23.5184 35.416 23.4351 35.2216 23.4351 34.9993C23.4351 34.7771 23.5184 34.5827 23.6851 34.416C23.8518 34.2493 24.0462 34.166 24.2684 34.166C24.4907 34.166 24.6851 34.2493 24.8518 34.416C25.0184 34.5827 25.1018 34.7771 25.1018 34.9993C25.1018 35.2216 25.0184 35.416 24.8518 35.5827C24.6851 35.7494 24.4907 35.8327 24.2684 35.8327ZM24.2684 5.83268C24.0462 5.83268 23.8518 5.74935 23.6851 5.58268C23.5184 5.41602 23.4351 5.22157 23.4351 4.99935C23.4351 4.77713 23.5184 4.58268 23.6851 4.41602C23.8518 4.24935 24.0462 4.16602 24.2684 4.16602C24.4907 4.16602 24.6851 4.24935 24.8518 4.41602C25.0184 4.58268 25.1018 4.77713 25.1018 4.99935C25.1018 5.22157 25.0184 5.41602 24.8518 5.58268C24.6851 5.74935 24.4907 5.83268 24.2684 5.83268ZM30.9351 31.666C30.4629 31.666 30.0671 31.5063 29.7476 31.1868C29.4282 30.8674 29.2684 30.4716 29.2684 29.9993C29.2684 29.5271 29.4282 29.1313 29.7476 28.8119C30.0671 28.4924 30.4629 28.3327 30.9351 28.3327C31.4073 28.3327 31.8032 28.4924 32.1226 28.8119C32.4421 29.1313 32.6018 29.5271 32.6018 29.9993C32.6018 30.4716 32.4421 30.8674 32.1226 31.1868C31.8032 31.5063 31.4073 31.666 30.9351 31.666ZM30.9351 24.9993C30.4629 24.9993 30.0671 24.8396 29.7476 24.5202C29.4282 24.2007 29.2684 23.8049 29.2684 23.3327C29.2684 22.8605 29.4282 22.4646 29.7476 22.1452C30.0671 21.8257 30.4629 21.666 30.9351 21.666C31.4073 21.666 31.8032 21.8257 32.1226 22.1452C32.4421 22.4646 32.6018 22.8605 32.6018 23.3327C32.6018 23.8049 32.4421 24.2007 32.1226 24.5202C31.8032 24.8396 31.4073 24.9993 30.9351 24.9993ZM30.9351 18.3327C30.4629 18.3327 30.0671 18.173 29.7476 17.8535C29.4282 17.5341 29.2684 17.1382 29.2684 16.666C29.2684 16.1938 29.4282 15.798 29.7476 15.4785C30.0671 15.1591 30.4629 14.9993 30.9351 14.9993C31.4073 14.9993 31.8032 15.1591 32.1226 15.4785C32.4421 15.798 32.6018 16.1938 32.6018 16.666C32.6018 17.1382 32.4421 17.5341 32.1226 17.8535C31.8032 18.173 31.4073 18.3327 30.9351 18.3327ZM30.9351 11.666C30.4629 11.666 30.0671 11.5063 29.7476 11.1868C29.4282 10.8674 29.2684 10.4716 29.2684 9.99935C29.2684 9.52713 29.4282 9.13129 29.7476 8.81185C30.0671 8.4924 30.4629 8.33268 30.9351 8.33268C31.4073 8.33268 31.8032 8.4924 32.1226 8.81185C32.4421 9.13129 32.6018 9.52713 32.6018 9.99935C32.6018 10.4716 32.4421 10.8674 32.1226 11.1868C31.8032 11.5063 31.4073 11.666 30.9351 11.666ZM35.9351 24.166C35.7129 24.166 35.5184 24.0827 35.3518 23.916C35.1851 23.7493 35.1018 23.5549 35.1018 23.3327C35.1018 23.1105 35.1851 22.916 35.3518 22.7494C35.5184 22.5827 35.7129 22.4993 35.9351 22.4993C36.1573 22.4993 36.3518 22.5827 36.5184 22.7494C36.6851 22.916 36.7684 23.1105 36.7684 23.3327C36.7684 23.5549 36.6851 23.7493 36.5184 23.916C36.3518 24.0827 36.1573 24.166 35.9351 24.166ZM35.9351 17.4993C35.7129 17.4993 35.5184 17.416 35.3518 17.2493C35.1851 17.0827 35.1018 16.8882 35.1018 16.666C35.1018 16.4438 35.1851 16.2493 35.3518 16.0827C35.5184 15.916 35.7129 15.8327 35.9351 15.8327C36.1573 15.8327 36.3518 15.916 36.5184 16.0827C36.6851 16.2493 36.7684 16.4438 36.7684 16.666C36.7684 16.8882 36.6851 17.0827 36.5184 17.2493C36.3518 17.416 36.1573 17.4993 35.9351 17.4993Z" fill="white"/>
</g>
</svg>
