<svg width="24" height="24" viewBox="0 0 24 24" fill="none" xmlns="http://www.w3.org/2000/svg">
<g id="Type=Arrow, State=Dark">
<mask id="mask0_281_801" style="mask-type:alpha" maskUnits="userSpaceOnUse" x="0" y="0" width="24" height="24">
<rect id="Bounding box" width="24" height="24" fill="#D9D9D9"/>
</mask>
<g mask="url(#mask0_281_801)">
<path id="arrow_left_alt" d="M7.84844 13L10.6984 15.85C10.8984 16.05 10.9943 16.2833 10.9859 16.55C10.9776 16.8167 10.8818 17.05 10.6984 17.25C10.4984 17.45 10.2609 17.5542 9.98594 17.5625C9.71094 17.5708 9.47344 17.475 9.27344 17.275L4.69844 12.7C4.49844 12.5 4.39844 12.2667 4.39844 12C4.39844 11.7333 4.49844 11.5 4.69844 11.3L9.27344 6.72501C9.47344 6.52501 9.71094 6.42918 9.98594 6.43751C10.2609 6.44585 10.4984 6.55001 10.6984 6.75001C10.8818 6.95001 10.9776 7.18335 10.9859 7.45001C10.9943 7.71668 10.8984 7.95001 10.6984 8.15001L7.84844 11H18.9984C19.2818 11 19.5193 11.0958 19.7109 11.2875C19.9026 11.4792 19.9984 11.7167 19.9984 12C19.9984 12.2833 19.9026 12.5208 19.7109 12.7125C19.5193 12.9042 19.2818 13 18.9984 13H7.84844Z" fill="#333333"/>
</g>
</g>
</svg>
