<svg width="25" height="24" viewBox="0 0 25 24" fill="none" xmlns="http://www.w3.org/2000/svg">
<mask id="mask0_1685_65447" style="mask-type:alpha" maskUnits="userSpaceOnUse" x="0" y="0" width="25" height="24">
<rect x="0.612305" width="24" height="24" fill="#D9D9D9"/>
</mask>
<g mask="url(#mask0_1685_65447)">
<path d="M3.1123 18.5V13C3.1123 12.627 3.2008 12.2652 3.3778 11.9145C3.55464 11.5638 3.79947 11.2757 4.1123 11.05V8.5C4.1123 7.80133 4.3543 7.21 4.8383 6.726C5.3223 6.242 5.91364 6 6.6123 6H10.8623C11.2265 6 11.5527 6.07083 11.8411 6.2125C12.1296 6.35417 12.3866 6.55 12.6123 6.8C12.838 6.55 13.0951 6.35417 13.3836 6.2125C13.6719 6.07083 13.9981 6 14.3623 6H18.6123C19.311 6 19.9023 6.242 20.3863 6.726C20.8703 7.21 21.1123 7.80133 21.1123 8.5V11.05C21.4251 11.2757 21.67 11.5638 21.8468 11.9145C22.0238 12.2652 22.1123 12.627 22.1123 13V18.5H20.6123V16.5H4.6123V18.5H3.1123ZM13.3623 10.5H19.6123V8.5C19.6123 8.21667 19.5165 7.97917 19.3248 7.7875C19.1331 7.59583 18.8956 7.5 18.6123 7.5H14.3623C14.079 7.5 13.8415 7.59583 13.6498 7.7875C13.4581 7.97917 13.3623 8.21667 13.3623 8.5V10.5ZM5.6123 10.5H11.8623V8.5C11.8623 8.21667 11.7665 7.97917 11.5748 7.7875C11.3831 7.59583 11.1456 7.5 10.8623 7.5H6.6123C6.32897 7.5 6.09147 7.59583 5.8998 7.7875C5.70814 7.97917 5.6123 8.21667 5.6123 8.5V10.5ZM4.6123 15H20.6123V13C20.6123 12.7167 20.5165 12.4792 20.3248 12.2875C20.1331 12.0958 19.8956 12 19.6123 12H5.6123C5.32897 12 5.09147 12.0958 4.8998 12.2875C4.70814 12.4792 4.6123 12.7167 4.6123 13V15Z" fill="#1C1B1F"/>
</g>
</svg>
