<svg width="24" height="25" viewBox="0 0 24 25" fill="none" xmlns="http://www.w3.org/2000/svg">
<g id="event_upcoming">
<mask id="mask0_6630_50371" style="mask-type:alpha" maskUnits="userSpaceOnUse" x="0" y="0" width="24" height="25">
<rect id="Bounding box" y="0.5" width="24" height="24" fill="#D9D9D9"/>
</mask>
<g mask="url(#mask0_6630_50371)">
<path id="event_upcoming_2" d="M15.0288 21.9981V20.4981H18.6923C18.7693 20.4981 18.8398 20.466 18.9038 20.4018C18.9679 20.3378 19 20.2673 19 20.1903V10.8058H5V14.7481H3.5V6.80581C3.5 6.30065 3.675 5.87306 4.025 5.52306C4.375 5.17306 4.80258 4.99806 5.30775 4.99806H6.69225V2.88281H8.23075V4.99806H15.8077V2.88281H17.3078V4.99806H18.6923C19.1974 4.99806 19.625 5.17306 19.975 5.52306C20.325 5.87306 20.5 6.30065 20.5 6.80581V20.1903C20.5 20.6955 20.325 21.1231 19.975 21.4731C19.625 21.8231 19.1974 21.9981 18.6923 21.9981H15.0288ZM8 24.1423L6.95575 23.0981L9.77125 20.2481H1.25V18.7481H9.77125L6.95575 15.8981L8 14.8538L12.6442 19.4981L8 24.1423ZM5 9.30581H19V6.80581C19 6.72881 18.9679 6.65831 18.9038 6.59431C18.8398 6.53014 18.7693 6.49806 18.6923 6.49806H5.30775C5.23075 6.49806 5.16025 6.53014 5.09625 6.59431C5.03208 6.65831 5 6.72881 5 6.80581V9.30581Z" fill="#666666"/>
</g>
</g>
</svg>
