<svg width="25" height="25" viewBox="0 0 25 25" fill="none" xmlns="http://www.w3.org/2000/svg">
<mask id="mask0_3637_197768" style="mask-type:alpha" maskUnits="userSpaceOnUse" x="0" y="0" width="25" height="25">
<rect x="0.972656" y="0.867188" width="24" height="24" fill="#D9D9D9"/>
</mask>
<g mask="url(#mask0_3637_197768)">
<path d="M6.28041 21.3672C5.77524 21.3672 5.34766 21.1922 4.99766 20.8422C4.64766 20.4922 4.47266 20.0646 4.47266 19.5594V16.0019H5.97266V19.5594C5.97266 19.6364 6.00474 19.7069 6.06891 19.7709C6.13291 19.8351 6.20341 19.8672 6.28041 19.8672H19.6649C19.7419 19.8672 19.8124 19.8351 19.8764 19.7709C19.9406 19.7069 19.9727 19.6364 19.9727 19.5594V6.17494C19.9727 6.09794 19.9406 6.02744 19.8764 5.96344C19.8124 5.89927 19.7419 5.86719 19.6649 5.86719H6.28041C6.20341 5.86719 6.13291 5.89927 6.06891 5.96344C6.00474 6.02744 5.97266 6.09794 5.97266 6.17494V9.73244H4.47266V6.17494C4.47266 5.66977 4.64766 5.24219 4.99766 4.89219C5.34766 4.54219 5.77524 4.36719 6.28041 4.36719H19.6649C20.1701 4.36719 20.5977 4.54219 20.9477 4.89219C21.2977 5.24219 21.4727 5.66977 21.4727 6.17494V19.5594C21.4727 20.0646 21.2977 20.4922 20.9477 20.8422C20.5977 21.1922 20.1701 21.3672 19.6649 21.3672H6.28041ZM11.6457 17.3287L10.5919 16.2442L13.2189 13.6172H4.47266V12.1172H13.2189L10.5919 9.49019L11.6457 8.40569L16.1072 12.8672L11.6457 17.3287Z" fill="black"/>
</g>
</svg>
