<svg width="25" height="25" viewBox="0 0 25 25" fill="none" xmlns="http://www.w3.org/2000/svg">
<mask id="mask0_3491_89227" style="mask-type:alpha" maskUnits="userSpaceOnUse" x="0" y="0" width="25" height="25">
<rect x="0.734375" y="0.15625" width="24" height="24" fill="#D9D9D9"/>
</mask>
<g mask="url(#mask0_3491_89227)">
<path d="M15.7344 20.6173L9.73438 18.5173L5.43063 20.1826C5.13579 20.2968 4.86271 20.2641 4.61138 20.0846C4.36004 19.9051 4.23438 19.6596 4.23438 19.3481V6.23284C4.23438 6.03534 4.28729 5.85809 4.39313 5.70109C4.49879 5.54409 4.64721 5.43034 4.83838 5.35984L9.73438 3.69434L15.7344 5.79434L20.0381 4.12909C20.333 4.01492 20.606 4.04275 20.8574 4.21259C21.1087 4.38242 21.2344 4.61992 21.2344 4.92509V18.1173C21.2344 18.3212 21.1767 18.5 21.0614 18.6538C20.9459 18.8077 20.7895 18.9198 20.5921 18.9903L15.7344 20.6173ZM14.9844 18.7828V7.08284L10.4844 5.50959V17.2096L14.9844 18.7828ZM16.4844 18.7828L19.7344 17.7058V5.85584L16.4844 7.08284V18.7828ZM5.73438 18.4558L8.98438 17.2096V5.50959L5.73438 6.60584V18.4558Z" fill="#6E6E6E"/>
</g>
</svg>
