<svg width="24" height="25" viewBox="0 0 24 25" fill="none" xmlns="http://www.w3.org/2000/svg">
<mask id="mask0_3135_22188" style="mask-type:alpha" maskUnits="userSpaceOnUse" x="0" y="0" width="24" height="25">
<rect y="0.5" width="24" height="24" fill="#D9D9D9"/>
</mask>
<g mask="url(#mask0_3135_22188)">
<path d="M10.95 18.4826L7.74625 15.2788L8.83075 14.1943L10.95 16.3136L15.1693 12.0943L16.2538 13.1788L10.95 18.4826ZM5.30775 21.9981C4.80258 21.9981 4.375 21.8231 4.025 21.4731C3.675 21.1231 3.5 20.6955 3.5 20.1903V6.80581C3.5 6.30065 3.675 5.87306 4.025 5.52306C4.375 5.17306 4.80258 4.99806 5.30775 4.99806H6.69225V2.88281H8.23075V4.99806H15.8077V2.88281H17.3077V4.99806H18.6923C19.1974 4.99806 19.625 5.17306 19.975 5.52306C20.325 5.87306 20.5 6.30065 20.5 6.80581V20.1903C20.5 20.6955 20.325 21.1231 19.975 21.4731C19.625 21.8231 19.1974 21.9981 18.6923 21.9981H5.30775ZM5.30775 20.4981H18.6923C18.7692 20.4981 18.8398 20.466 18.9038 20.4018C18.9679 20.3378 19 20.2673 19 20.1903V10.8058H5V20.1903C5 20.2673 5.03208 20.3378 5.09625 20.4018C5.16025 20.466 5.23075 20.4981 5.30775 20.4981ZM5 9.30581H19V6.80581C19 6.72881 18.9679 6.65831 18.9038 6.59431C18.8398 6.53014 18.7692 6.49806 18.6923 6.49806H5.30775C5.23075 6.49806 5.16025 6.53014 5.09625 6.59431C5.03208 6.65831 5 6.72881 5 6.80581V9.30581Z" fill="#666666"/>
</g>
</svg>
