<svg width="25" height="24" viewBox="0 0 25 24" fill="none" xmlns="http://www.w3.org/2000/svg">
<path fill-rule="evenodd" clip-rule="evenodd" d="M7.37412 3.25C7.57303 3.25 7.7638 3.32902 7.90445 3.46967C8.0451 3.61032 8.12412 3.80109 8.12412 4V5.668C10.9519 5.41664 13.7964 5.41664 16.6241 5.668V4C16.6241 3.80109 16.7031 3.61032 16.8438 3.46967C16.9844 3.32902 17.1752 3.25 17.3741 3.25C17.573 3.25 17.7638 3.32902 17.9045 3.46967C18.0451 3.61032 18.1241 3.80109 18.1241 4V5.816C18.8537 5.91945 19.5293 6.25882 20.0479 6.78228C20.5665 7.30573 20.8995 7.98452 20.9961 8.715L21.0831 9.368C21.4471 12.114 21.4151 14.898 20.9891 17.636C20.8864 18.2951 20.5677 18.9015 20.0829 19.3598C19.5982 19.8181 18.975 20.1024 18.3111 20.168L17.1181 20.286C13.9631 20.5967 10.7852 20.5967 7.63012 20.286L6.43712 20.168C5.77327 20.1024 5.15003 19.8181 4.6653 19.3598C4.18057 18.9015 3.86182 18.2951 3.75912 17.636C3.33304 14.8986 3.30138 12.1143 3.66512 9.368L3.75212 8.715C3.84875 7.98452 4.18177 7.30573 4.70036 6.78228C5.21894 6.25882 5.89458 5.91945 6.62412 5.816V4C6.62412 3.80109 6.70314 3.61032 6.84379 3.46967C6.98444 3.32902 7.17521 3.25 7.37412 3.25ZM7.81912 7.203C10.8491 6.904 13.8991 6.904 16.9291 7.203L17.8341 7.293C18.7011 7.378 19.3941 8.049 19.5091 8.912L19.5961 9.565C19.6261 9.793 19.6535 10.0213 19.6781 10.25H5.07012C5.09479 10.0213 5.12212 9.793 5.15212 9.565L5.23912 8.912C5.29462 8.49261 5.49031 8.10431 5.79441 7.8102C6.0985 7.5161 6.49311 7.33347 6.91412 7.292L7.81912 7.203ZM4.95112 11.75C4.85295 13.64 4.95013 15.535 5.24112 17.405C5.29266 17.7356 5.45252 18.0396 5.6956 18.2695C5.93867 18.4994 6.2512 18.642 6.58412 18.675L7.77712 18.793C10.8341 19.095 13.9141 19.095 16.9711 18.793L18.1641 18.675C18.497 18.642 18.8096 18.4994 19.0526 18.2695C19.2957 18.0396 19.4556 17.7356 19.5071 17.405C19.7991 15.533 19.8951 13.638 19.7971 11.75H4.95112Z" fill="white"/>
</svg>
