<svg width="24" height="25" viewBox="0 0 24 25" fill="none" xmlns="http://www.w3.org/2000/svg">
<g id="call">
<mask id="mask0_4486_171653" style="mask-type:alpha" maskUnits="userSpaceOnUse" x="0" y="0" width="24" height="25">
<rect id="Bounding box" y="0.503906" width="24" height="24" fill="#D9D9D9"/>
</mask>
<g mask="url(#mask0_4486_171653)">
<path id="call_2" d="M19.4402 21.0039C17.5557 21.0039 15.6625 20.5657 13.7605 19.6894C11.8587 18.8131 10.1113 17.5769 8.51825 15.9809C6.92542 14.3847 5.69083 12.6372 4.8145 10.7384C3.93817 8.83974 3.5 6.94816 3.5 5.06366C3.5 4.76082 3.6 4.50849 3.8 4.30666C4 4.10482 4.25 4.00391 4.55 4.00391H7.8115C8.064 4.00391 8.28675 4.08632 8.47975 4.25116C8.67275 4.41582 8.7955 4.61932 8.848 4.86166L9.42125 7.80391C9.46092 8.07691 9.45258 8.31149 9.39625 8.50766C9.33975 8.70382 9.23842 8.86857 9.09225 9.00191L6.78275 11.2502C7.15442 11.9308 7.57908 12.5747 8.05675 13.1819C8.53425 13.7889 9.05125 14.3687 9.60775 14.9212C10.1564 15.47 10.7397 15.9797 11.3577 16.4502C11.9757 16.9207 12.6431 17.3585 13.3598 17.7637L15.6038 15.5002C15.7603 15.3373 15.9498 15.2232 16.1723 15.1577C16.3946 15.0923 16.6257 15.0763 16.8655 15.1097L19.6423 15.6752C19.8948 15.7418 20.1008 15.8707 20.2605 16.0617C20.4202 16.2527 20.5 16.4693 20.5 16.7117V19.9539C20.5 20.2539 20.3991 20.5039 20.1973 20.7039C19.9954 20.9039 19.7431 21.0039 19.4402 21.0039ZM6.073 9.83091L7.85775 8.12316C7.88975 8.09749 7.91058 8.06224 7.92025 8.01741C7.92992 7.97257 7.92833 7.93091 7.9155 7.89241L7.48075 5.65766C7.46792 5.60649 7.4455 5.56807 7.4135 5.54241C7.3815 5.51674 7.33983 5.50391 7.2885 5.50391H5.15C5.1115 5.50391 5.07942 5.51674 5.05375 5.54241C5.02825 5.56807 5.0155 5.60016 5.0155 5.63866C5.06667 6.32199 5.1785 7.01616 5.351 7.72116C5.52333 8.42632 5.764 9.12957 6.073 9.83091ZM14.773 18.4732C15.4358 18.7822 16.1272 19.0184 16.847 19.1819C17.567 19.3452 18.2397 19.4423 18.8652 19.4732C18.9037 19.4732 18.9358 19.4603 18.9615 19.4347C18.9872 19.409 19 19.3769 19 19.3384V17.2347C19 17.1833 18.9872 17.1417 18.9615 17.1097C18.9358 17.0777 18.8974 17.0552 18.8462 17.0424L16.7462 16.6154C16.7077 16.6026 16.6741 16.601 16.6453 16.6107C16.6164 16.6203 16.5859 16.6412 16.5538 16.6732L14.773 18.4732Z" fill="#666666"/>
</g>
</g>
</svg>
