<svg width="24" height="25" viewBox="0 0 24 25" fill="none" xmlns="http://www.w3.org/2000/svg">
<mask id="mask0_5888_23498" style="mask-type:alpha" maskUnits="userSpaceOnUse" x="0" y="0" width="24" height="25">
<rect y="0.337891" width="24" height="24" fill="#D9D9D9"/>
</mask>
<g mask="url(#mask0_5888_23498)">
<path d="M12 12.9125L15.9 9.0125C16.0833 8.82917 16.3166 8.7375 16.6 8.7375C16.8833 8.7375 17.1166 8.82917 17.3 9.0125C17.4833 9.19583 17.575 9.42917 17.575 9.7125C17.575 9.99583 17.4833 10.2292 17.3 10.4125L12.7 15.0125C12.5 15.2125 12.2666 15.3125 12 15.3125C11.7333 15.3125 11.5 15.2125 11.3 15.0125L6.69995 10.4125C6.51662 10.2292 6.42495 9.99583 6.42495 9.7125C6.42495 9.42917 6.51662 9.19583 6.69995 9.0125C6.88329 8.82917 7.11662 8.7375 7.39995 8.7375C7.68329 8.7375 7.91662 8.82917 8.09995 9.0125L12 12.9125Z" fill="#666666"/>
</g>
</svg>
