<svg width="24" height="25" viewBox="0 0 24 25" fill="none" xmlns="http://www.w3.org/2000/svg">
<mask id="mask0_3906_17350" style="mask-type:alpha" maskUnits="userSpaceOnUse" x="0" y="0" width="24" height="25">
<rect y="0.691162" width="24" height="24" fill="#D9D9D9"/>
</mask>
<g mask="url(#mask0_3906_17350)">
<path d="M15.473 17.2182L16.527 16.1642L12.75 12.3872V7.69116H11.25V12.9949L15.473 17.2182ZM12.0017 22.1912C10.6877 22.1912 9.45267 21.9418 8.2965 21.4432C7.14033 20.9445 6.13467 20.2677 5.2795 19.4129C4.42433 18.5581 3.74725 17.5528 3.24825 16.3972C2.74942 15.2415 2.5 14.0067 2.5 12.6929C2.5 11.3789 2.74933 10.1438 3.248 8.98766C3.74667 7.8315 4.42342 6.82583 5.27825 5.97066C6.13308 5.1155 7.13833 4.43841 8.294 3.93941C9.44967 3.44058 10.6844 3.19116 11.9983 3.19116C13.3123 3.19116 14.5473 3.4405 15.7035 3.93916C16.8597 4.43783 17.8653 5.11458 18.7205 5.96941C19.5757 6.82425 20.2528 7.8295 20.7518 8.98516C21.2506 10.1408 21.5 11.3756 21.5 12.6894C21.5 14.0034 21.2507 15.2385 20.752 16.3947C20.2533 17.5508 19.5766 18.5565 18.7218 19.4117C17.8669 20.2668 16.8617 20.9439 15.706 21.4429C14.5503 21.9417 13.3156 22.1912 12.0017 22.1912ZM12 20.6912C14.2167 20.6912 16.1042 19.912 17.6625 18.3537C19.2208 16.7953 20 14.9078 20 12.6912C20 10.4745 19.2208 8.587 17.6625 7.02866C16.1042 5.47033 14.2167 4.69116 12 4.69116C9.78333 4.69116 7.89583 5.47033 6.3375 7.02866C4.77917 8.587 4 10.4745 4 12.6912C4 14.9078 4.77917 16.7953 6.3375 18.3537C7.89583 19.912 9.78333 20.6912 12 20.6912Z" fill="#1C1B1F"/>
</g>
</svg>
