<svg width="25" height="24" viewBox="0 0 25 24" fill="none" xmlns="http://www.w3.org/2000/svg">
<mask id="mask0_2662_23908" style="mask-type:alpha" maskUnits="userSpaceOnUse" x="0" y="0" width="25" height="24">
<rect x="0.148438" width="24" height="24" fill="#D9D9D9"/>
</mask>
<g mask="url(#mask0_2662_23908)">
<path d="M12.1485 13.3998L7.24849 18.2998C7.06515 18.4831 6.83182 18.5748 6.54849 18.5748C6.26515 18.5748 6.03182 18.4831 5.84849 18.2998C5.66515 18.1165 5.57349 17.8831 5.57349 17.5998C5.57349 17.3165 5.66515 17.0831 5.84849 16.8998L10.7485 11.9998L5.84849 7.0998C5.66515 6.91647 5.57349 6.68314 5.57349 6.3998C5.57349 6.11647 5.66515 5.88314 5.84849 5.6998C6.03182 5.51647 6.26515 5.4248 6.54849 5.4248C6.83182 5.4248 7.06515 5.51647 7.24849 5.6998L12.1485 10.5998L17.0485 5.6998C17.2318 5.51647 17.4652 5.4248 17.7485 5.4248C18.0318 5.4248 18.2652 5.51647 18.4485 5.6998C18.6318 5.88314 18.7235 6.11647 18.7235 6.3998C18.7235 6.68314 18.6318 6.91647 18.4485 7.0998L13.5485 11.9998L18.4485 16.8998C18.6318 17.0831 18.7235 17.3165 18.7235 17.5998C18.7235 17.8831 18.6318 18.1165 18.4485 18.2998C18.2652 18.4831 18.0318 18.5748 17.7485 18.5748C17.4652 18.5748 17.2318 18.4831 17.0485 18.2998L12.1485 13.3998Z" fill="#666666"/>
</g>
</svg>
