<svg width="25" height="25" viewBox="0 0 25 25" fill="none" xmlns="http://www.w3.org/2000/svg">
<mask id="mask0_2089_4533" style="mask-type:alpha" maskUnits="userSpaceOnUse" x="0" y="0" width="25" height="25">
<rect x="0.6875" y="0.96875" width="24" height="24" fill="#D9D9D9"/>
</mask>
<g mask="url(#mask0_2089_4533)">
<path d="M12.6875 6.18053C12.4749 6.18053 12.2968 6.1087 12.1533 5.96503C12.0096 5.8212 11.9378 5.64303 11.9378 5.43053V3.23828C11.9378 3.02578 12.0097 2.8477 12.1535 2.70403C12.2974 2.5602 12.4755 2.48828 12.688 2.48828C12.9007 2.48828 13.0788 2.5602 13.2223 2.70403C13.3659 2.8477 13.4378 3.02578 13.4378 3.23828V5.43053C13.4378 5.64303 13.3659 5.8212 13.222 5.96503C13.0782 6.1087 12.9 6.18053 12.6875 6.18053ZM17.484 8.17278C17.3455 8.03445 17.2779 7.86303 17.281 7.65853C17.2842 7.45403 17.355 7.2742 17.4935 7.11903L19.0185 5.55953C19.169 5.40436 19.3477 5.32678 19.5545 5.32678C19.7614 5.32678 19.943 5.40503 20.0995 5.56153C20.243 5.70503 20.3148 5.87995 20.3148 6.08628C20.3148 6.29278 20.2423 6.46845 20.0973 6.61328L18.5378 8.17278C18.393 8.31778 18.2173 8.39028 18.0108 8.39028C17.8044 8.39028 17.6289 8.31778 17.484 8.17278ZM20.2263 13.719C20.0138 13.719 19.8356 13.6471 19.6918 13.5033C19.5481 13.3594 19.4763 13.1813 19.4763 12.9688C19.4763 12.7561 19.5481 12.578 19.6918 12.4345C19.8356 12.2909 20.0138 12.219 20.2263 12.219H22.4185C22.631 12.219 22.8091 12.2909 22.9528 12.4348C23.0966 12.5786 23.1685 12.7568 23.1685 12.9693C23.1685 13.1819 23.0966 13.36 22.9528 13.5035C22.8091 13.6472 22.631 13.719 22.4185 13.719H20.2263ZM12.6875 23.4498C12.4749 23.4498 12.2968 23.3779 12.1533 23.234C12.0096 23.0904 11.9378 22.9123 11.9378 22.6998V20.517C11.9378 20.3045 12.0097 20.1264 12.1535 19.9828C12.2974 19.8389 12.4755 19.767 12.688 19.767C12.9007 19.767 13.0788 19.8389 13.2223 19.9828C13.3659 20.1264 13.4378 20.3045 13.4378 20.517V22.6998C13.4378 22.9123 13.3659 23.0904 13.222 23.234C13.0782 23.3779 12.9 23.4498 12.6875 23.4498ZM6.84753 8.17278L5.27828 6.63828C5.12311 6.48845 5.04553 6.30736 5.04553 6.09503C5.04553 5.88286 5.12311 5.70436 5.27828 5.55953C5.42311 5.42103 5.60086 5.35178 5.81153 5.35178C6.0222 5.35178 6.1957 5.42103 6.33203 5.55953L7.90128 7.12878C8.03978 7.26511 8.10903 7.43862 8.10903 7.64928C8.10903 7.85995 8.04045 8.03445 7.90328 8.17278C7.75361 8.31128 7.57903 8.38053 7.37953 8.38053C7.17987 8.38053 7.00253 8.31128 6.84753 8.17278ZM19.0283 20.3785L17.4935 18.819C17.355 18.6639 17.2842 18.484 17.281 18.2795C17.2779 18.075 17.3449 17.9036 17.482 17.7653C17.6192 17.6268 17.7907 17.5575 17.9965 17.5575C18.2022 17.5575 18.3826 17.6299 18.5378 17.7748L20.0973 19.3095C20.2461 19.4479 20.3179 19.6219 20.3128 19.8315C20.3076 20.0412 20.2349 20.2235 20.0945 20.3785C19.9414 20.5337 19.7594 20.6113 19.5488 20.6113C19.3379 20.6113 19.1644 20.5337 19.0283 20.3785ZM2.95703 13.719C2.74453 13.719 2.56645 13.6471 2.42278 13.5033C2.27895 13.3594 2.20703 13.1813 2.20703 12.9688C2.20703 12.7561 2.27895 12.578 2.42278 12.4345C2.56645 12.2909 2.74453 12.219 2.95703 12.219H5.14928C5.36178 12.219 5.53995 12.2909 5.68378 12.4348C5.82745 12.5786 5.89928 12.7568 5.89928 12.9693C5.89928 13.1819 5.82745 13.36 5.68378 13.5035C5.53995 13.6472 5.36178 13.719 5.14928 13.719H2.95703ZM5.28778 20.3785C5.14928 20.2337 5.07845 20.0564 5.07528 19.8468C5.07211 19.6373 5.13978 19.4633 5.27828 19.3248L6.82828 17.7748C6.97311 17.6299 7.1462 17.5575 7.34753 17.5575C7.5487 17.5575 7.72686 17.6293 7.88203 17.7728C8.0372 17.9293 8.11478 18.1098 8.11478 18.3143C8.11478 18.5188 8.0372 18.6985 7.88203 18.8535L6.35703 20.3785C6.20187 20.5337 6.01895 20.6113 5.80828 20.6113C5.59762 20.6113 5.42411 20.5337 5.28778 20.3785ZM12.69 18.469C11.1629 18.469 9.86403 17.9345 8.79353 16.8655C7.72303 15.7965 7.18778 14.4984 7.18778 12.9713C7.18778 11.4441 7.72228 10.1453 8.79128 9.07478C9.86028 8.00428 11.1584 7.46903 12.6855 7.46903C14.2127 7.46903 15.5115 8.00353 16.582 9.07253C17.6525 10.1415 18.1878 11.4396 18.1878 12.9668C18.1878 14.4939 17.6533 15.7928 16.5843 16.8633C15.5153 17.9338 14.2172 18.469 12.69 18.469Z" fill="#333333"/>
</g>
</svg>
