<svg width="24" height="25" viewBox="0 0 24 25" fill="none" xmlns="http://www.w3.org/2000/svg">
<mask id="mask0_195_35538" style="mask-type:alpha" maskUnits="userSpaceOnUse" x="0" y="0" width="24" height="25">
<rect y="0.0957031" width="24" height="24" fill="#D9D9D9"/>
</mask>
<g mask="url(#mask0_195_35538)">
<path d="M12 16.8265C12.2288 16.8265 12.4207 16.749 12.5755 16.5942C12.7303 16.4394 12.8077 16.2475 12.8077 16.0187C12.8077 15.7899 12.7303 15.598 12.5755 15.4432C12.4207 15.2885 12.2288 15.2112 12 15.2112C11.7712 15.2112 11.5793 15.2885 11.4245 15.4432C11.2697 15.598 11.1923 15.7899 11.1923 16.0187C11.1923 16.2475 11.2697 16.4394 11.4245 16.5942C11.5793 16.749 11.7712 16.8265 12 16.8265ZM11.25 13.1727H12.75V7.1727H11.25V13.1727ZM12.0017 21.5957C10.6877 21.5957 9.45267 21.3464 8.2965 20.8477C7.14033 20.349 6.13467 19.6723 5.2795 18.8175C4.42433 17.9626 3.74725 16.9574 3.24825 15.8017C2.74942 14.646 2.5 13.4113 2.5 12.0975C2.5 10.7835 2.74933 9.54837 3.248 8.3922C3.74667 7.23604 4.42342 6.23037 5.27825 5.3752C6.13308 4.52004 7.13833 3.84295 8.294 3.34395C9.44967 2.84512 10.6844 2.5957 11.9983 2.5957C13.3123 2.5957 14.5473 2.84504 15.7035 3.3437C16.8597 3.84237 17.8653 4.51912 18.7205 5.37395C19.5757 6.22879 20.2528 7.23404 20.7518 8.3897C21.2506 9.54537 21.5 10.7801 21.5 12.094C21.5 13.408 21.2507 14.643 20.752 15.7992C20.2533 16.9554 19.5766 17.961 18.7218 18.8162C17.8669 19.6714 16.8617 20.3485 15.706 20.8475C14.5503 21.3463 13.3156 21.5957 12.0017 21.5957ZM12 20.0957C14.2333 20.0957 16.125 19.3207 17.675 17.7707C19.225 16.2207 20 14.329 20 12.0957C20 9.86237 19.225 7.9707 17.675 6.4207C16.125 4.8707 14.2333 4.0957 12 4.0957C9.76667 4.0957 7.875 4.8707 6.325 6.4207C4.775 7.9707 4 9.86237 4 12.0957C4 14.329 4.775 16.2207 6.325 17.7707C7.875 19.3207 9.76667 20.0957 12 20.0957Z" fill="#9C856B"/>
</g>
</svg>
