<svg width="24" height="25" viewBox="0 0 24 25" fill="none" xmlns="http://www.w3.org/2000/svg">
<path fill-rule="evenodd" clip-rule="evenodd" d="M6.99912 3.27344C7.19803 3.27344 7.3888 3.35246 7.52945 3.49311C7.6701 3.63376 7.74912 3.82453 7.74912 4.02344V5.69144C10.5769 5.44008 13.4214 5.44008 16.2491 5.69144V4.02344C16.2491 3.82453 16.3281 3.63376 16.4688 3.49311C16.6094 3.35246 16.8002 3.27344 16.9991 3.27344C17.198 3.27344 17.3888 3.35246 17.5295 3.49311C17.6701 3.63376 17.7491 3.82453 17.7491 4.02344V5.83944C18.4787 5.94289 19.1543 6.28225 19.6729 6.80571C20.1915 7.32917 20.5245 8.00796 20.6211 8.73844L20.7081 9.39144C21.0721 12.1374 21.0401 14.9214 20.6141 17.6594C20.5114 18.3186 20.1927 18.9249 19.7079 19.3832C19.2232 19.8415 18.6 20.1258 17.9361 20.1914L16.7431 20.3094C13.5881 20.6202 10.4102 20.6202 7.25512 20.3094L6.06212 20.1914C5.39827 20.1258 4.77503 19.8415 4.2903 19.3832C3.80557 18.9249 3.48682 18.3186 3.38412 17.6594C2.95804 14.9221 2.92638 12.1378 3.29012 9.39144L3.37712 8.73844C3.47375 8.00796 3.80677 7.32917 4.32536 6.80571C4.84394 6.28225 5.51958 5.94289 6.24912 5.83944V4.02344C6.24912 3.82453 6.32814 3.63376 6.46879 3.49311C6.60944 3.35246 6.80021 3.27344 6.99912 3.27344ZM7.44412 7.22644C10.4741 6.92744 13.5241 6.92744 16.5541 7.22644L17.4591 7.31644C18.3261 7.40144 19.0191 8.07244 19.1341 8.93544L19.2211 9.58844C19.2511 9.81644 19.2785 10.0448 19.3031 10.2734H4.69512C4.71979 10.0448 4.74712 9.81644 4.77712 9.58844L4.86412 8.93544C4.91962 8.51604 5.11531 8.12775 5.41941 7.83364C5.7235 7.53953 6.11811 7.35691 6.53912 7.31544L7.44412 7.22644ZM4.57612 11.7734C4.47795 13.6634 4.57513 15.5584 4.86612 17.4284C4.91766 17.759 5.07752 18.0631 5.3206 18.2929C5.56367 18.5228 5.8762 18.6654 6.20912 18.6984L7.40212 18.8164C10.4591 19.1184 13.5391 19.1184 16.5961 18.8164L17.7891 18.6984C18.122 18.6654 18.4346 18.5228 18.6776 18.2929C18.9207 18.0631 19.0806 17.759 19.1321 17.4284C19.4241 15.5564 19.5201 13.6614 19.4221 11.7734H4.57612Z" fill="#333333"/>
</svg>
