<svg width="24" height="24" viewBox="0 0 24 24" fill="none" xmlns="http://www.w3.org/2000/svg">
<g id="event_available">
<mask id="mask0_6158_49597" style="mask-type:alpha" maskUnits="userSpaceOnUse" x="0" y="0" width="24" height="25">
<rect id="Bounding box" y="0.00390625" width="24" height="24" fill="#D9D9D9"/>
</mask>
<g mask="url(#mask0_6158_49597)">
<path id="event_available_2" d="M10.95 17.9865L7.74625 14.7827L8.83075 13.6982L10.95 15.8175L15.1693 11.5982L16.2538 12.6827L10.95 17.9865ZM5.30775 21.502C4.80258 21.502 4.375 21.327 4.025 20.977C3.675 20.627 3.5 20.1994 3.5 19.6942V6.30972C3.5 5.80455 3.675 5.37697 4.025 5.02697C4.375 4.67697 4.80258 4.50197 5.30775 4.50197H6.69225V2.38672H8.23075V4.50197H15.8077V2.38672H17.3077V4.50197H18.6923C19.1974 4.50197 19.625 4.67697 19.975 5.02697C20.325 5.37697 20.5 5.80455 20.5 6.30972V19.6942C20.5 20.1994 20.325 20.627 19.975 20.977C19.625 21.327 19.1974 21.502 18.6923 21.502H5.30775ZM5.30775 20.002H18.6923C18.7692 20.002 18.8398 19.9699 18.9038 19.9057C18.9679 19.8417 19 19.7712 19 19.6942V10.3097H5V19.6942C5 19.7712 5.03208 19.8417 5.09625 19.9057C5.16025 19.9699 5.23075 20.002 5.30775 20.002ZM5 8.80972H19V6.30972C19 6.23272 18.9679 6.16222 18.9038 6.09822C18.8398 6.03405 18.7692 6.00197 18.6923 6.00197H5.30775C5.23075 6.00197 5.16025 6.03405 5.09625 6.09822C5.03208 6.16222 5 6.23272 5 6.30972V8.80972Z" fill="#666666"/>
</g>
</g>
</svg>
