<svg width="25" height="25" viewBox="0 0 25 25" fill="none" xmlns="http://www.w3.org/2000/svg">
<mask id="mask0_3959_10652" style="mask-type:alpha" maskUnits="userSpaceOnUse" x="0" y="0" width="25" height="25">
<rect x="0.742188" y="0.466797" width="24" height="24" fill="#D9D9D9"/>
</mask>
<g mask="url(#mask0_3959_10652)">
<path d="M6.04994 20.9668C5.54477 20.9668 5.11719 20.7918 4.76719 20.4418C4.41719 20.0918 4.24219 19.6642 4.24219 19.159V15.6015H5.74219V19.159C5.74219 19.236 5.77427 19.3065 5.83844 19.3705C5.90244 19.4347 5.97294 19.4668 6.04994 19.4668H19.4344C19.5114 19.4668 19.5819 19.4347 19.6459 19.3705C19.7101 19.3065 19.7422 19.236 19.7422 19.159V5.77455C19.7422 5.69755 19.7101 5.62705 19.6459 5.56305C19.5819 5.49888 19.5114 5.4668 19.4344 5.4668H6.04994C5.97294 5.4668 5.90244 5.49888 5.83844 5.56305C5.77427 5.62705 5.74219 5.69755 5.74219 5.77455V9.33205H4.24219V5.77455C4.24219 5.26938 4.41719 4.8418 4.76719 4.4918C5.11719 4.1418 5.54477 3.9668 6.04994 3.9668H19.4344C19.9396 3.9668 20.3672 4.1418 20.7172 4.4918C21.0672 4.8418 21.2422 5.26938 21.2422 5.77455V19.159C21.2422 19.6642 21.0672 20.0918 20.7172 20.4418C20.3672 20.7918 19.9396 20.9668 19.4344 20.9668H6.04994ZM11.4152 16.9283L10.3614 15.8438L12.9884 13.2168H4.24219V11.7168H12.9884L10.3614 9.0898L11.4152 8.0053L15.8767 12.4668L11.4152 16.9283Z" fill="white"/>
</g>
</svg>
