<svg width="25" height="25" viewBox="0 0 25 25" fill="none" xmlns="http://www.w3.org/2000/svg">
<g id="exit_to_app">
<mask id="mask0_1219_55304" style="mask-type:alpha" maskUnits="userSpaceOnUse" x="0" y="0" width="25" height="25">
<rect id="Bounding box" x="0.046875" y="0.361328" width="24" height="24" fill="#D9D9D9"/>
</mask>
<g mask="url(#mask0_1219_55304)">
<path id="exit_to_app_2" d="M5.35462 20.8613C4.84946 20.8613 4.42188 20.6863 4.07188 20.3363C3.72188 19.9863 3.54688 19.5587 3.54688 19.0536V15.4961H5.04688V19.0536C5.04688 19.1306 5.07896 19.2011 5.14313 19.2651C5.20713 19.3292 5.27762 19.3613 5.35462 19.3613H18.7391C18.8161 19.3613 18.8866 19.3292 18.9506 19.2651C19.0148 19.2011 19.0469 19.1306 19.0469 19.0536V5.66908C19.0469 5.59208 19.0148 5.52158 18.9506 5.45758C18.8866 5.39341 18.8161 5.36133 18.7391 5.36133H5.35462C5.27762 5.36133 5.20713 5.39341 5.14313 5.45758C5.07896 5.52158 5.04688 5.59208 5.04688 5.66908V9.22658H3.54688V5.66908C3.54688 5.16391 3.72188 4.73633 4.07188 4.38633C4.42188 4.03633 4.84946 3.86133 5.35462 3.86133H18.7391C19.2443 3.86133 19.6719 4.03633 20.0219 4.38633C20.3719 4.73633 20.5469 5.16391 20.5469 5.66908V19.0536C20.5469 19.5587 20.3719 19.9863 20.0219 20.3363C19.6719 20.6863 19.2443 20.8613 18.7391 20.8613H5.35462ZM10.7199 16.8228L9.66612 15.7383L12.2931 13.1113H3.54688V11.6113H12.2931L9.66612 8.98433L10.7199 7.89983L15.1814 12.3613L10.7199 16.8228Z" fill="#1C1B1F"/>
</g>
</g>
</svg>
