<svg width="32" height="32" viewBox="0 0 32 32" fill="none" xmlns="http://www.w3.org/2000/svg">
<path d="M4.98331 7.75264C4.35547 8.98485 4.35547 10.5979 4.35547 13.824V18.4323C4.35547 21.6584 4.35547 23.2715 4.98331 24.5037C5.53558 25.5876 6.4168 26.4688 7.50068 27.0211C8.73289 27.6489 10.3459 27.6489 13.5721 27.6489H15.7776V18.9144H12.5101V15.2357H15.7776V12.432C15.7776 9.24245 17.6987 7.48066 20.6382 7.48066C22.0461 7.48066 23.5188 7.72922 23.5188 7.72922V10.8611H21.8961C20.2975 10.8611 19.799 11.842 19.799 12.8485V15.2357H23.368L22.7975 18.9144H19.799V27.645C21.9849 27.6278 23.2453 27.5338 24.2517 27.0211C25.3356 26.4688 26.2168 25.5876 26.7691 24.5037C27.3969 23.2715 27.3969 21.6584 27.3969 18.4323V13.824C27.3969 10.5979 27.3969 8.98485 26.7691 7.75264C26.2168 6.66875 25.3356 5.78753 24.2517 5.23526C23.0195 4.60742 21.4065 4.60742 18.1804 4.60742H13.5721C10.3459 4.60742 8.73289 4.60742 7.50068 5.23526C6.4168 5.78753 5.53558 6.66875 4.98331 7.75264Z" fill="#9b9b9b" />
</svg>
