<svg width="25" height="24" viewBox="0 0 25 24" fill="none" xmlns="http://www.w3.org/2000/svg">
<mask id="mask0_1685_65455" style="mask-type:alpha" maskUnits="userSpaceOnUse" x="0" y="0" width="25" height="24">
<rect x="0.612305" width="24" height="24" fill="#D9D9D9"/>
</mask>
<g mask="url(#mask0_1685_65455)">
<path d="M2.41016 19.3069V17.0837C2.41016 16.5683 2.54316 16.1084 2.80916 15.7039C3.07516 15.2994 3.43041 14.9847 3.87491 14.7599C4.82524 14.2951 5.78082 13.9367 6.74166 13.6847C7.70266 13.4328 8.75874 13.3069 9.90991 13.3069C11.0612 13.3069 12.1173 13.4328 13.0782 13.6847C14.0392 13.9367 14.9948 14.2951 15.9452 14.7599C16.3897 14.9847 16.7449 15.2994 17.0109 15.7039C17.2769 16.1084 17.4099 16.5683 17.4099 17.0837V19.3069H2.41016ZM19.4099 19.3069V16.9607C19.4099 16.3043 19.2492 15.6787 18.9279 15.0839C18.6064 14.4892 18.1504 13.979 17.5599 13.5532C18.2304 13.6532 18.867 13.8079 19.4697 14.0174C20.0722 14.2271 20.6472 14.4748 21.1947 14.7607C21.7113 15.0363 22.1103 15.3612 22.3917 15.7354C22.673 16.1094 22.8137 16.5178 22.8137 16.9607V19.3069H19.4099ZM9.90991 11.6914C8.94741 11.6914 8.12349 11.3487 7.43816 10.6634C6.75282 9.97791 6.41016 9.15391 6.41016 8.19141C6.41016 7.22891 6.75282 6.40499 7.43816 5.71966C8.12349 5.03416 8.94741 4.69141 9.90991 4.69141C10.8724 4.69141 11.6964 5.03416 12.3819 5.71966C13.0672 6.40499 13.4099 7.22891 13.4099 8.19141C13.4099 9.15391 13.0672 9.97791 12.3819 10.6634C11.6964 11.3487 10.8724 11.6914 9.90991 11.6914ZM18.5444 8.19141C18.5444 9.15391 18.2017 9.97791 17.5164 10.6634C16.8311 11.3487 16.0072 11.6914 15.0447 11.6914C14.9318 11.6914 14.7882 11.6786 14.6139 11.6529C14.4394 11.6272 14.2958 11.5991 14.1832 11.5684C14.5775 11.0942 14.8806 10.5682 15.0924 9.99041C15.3041 9.41257 15.4099 8.81257 15.4099 8.19041C15.4099 7.56807 15.3019 6.97032 15.0859 6.39716C14.8699 5.82416 14.569 5.29666 14.1832 4.81466C14.3267 4.76332 14.4702 4.72999 14.6139 4.71466C14.7574 4.69916 14.901 4.69141 15.0447 4.69141C16.0072 4.69141 16.8311 5.03416 17.5164 5.71966C18.2017 6.40499 18.5444 7.22891 18.5444 8.19141ZM3.90991 17.8069H15.9099V17.0837C15.9099 16.8748 15.8577 16.689 15.7532 16.5262C15.6488 16.3633 15.4832 16.221 15.2562 16.0992C14.4332 15.6748 13.5857 15.3533 12.7139 15.1347C11.8421 14.9162 10.9074 14.8069 9.90991 14.8069C8.91257 14.8069 7.97799 14.9162 7.10616 15.1347C6.23432 15.3533 5.38691 15.6748 4.56391 16.0992C4.33691 16.221 4.17116 16.3633 4.06666 16.5262C3.96216 16.689 3.90991 16.8748 3.90991 17.0837V17.8069ZM9.90991 10.1914C10.4599 10.1914 10.9307 9.99557 11.3224 9.60391C11.7141 9.21224 11.9099 8.74141 11.9099 8.19141C11.9099 7.64141 11.7141 7.17057 11.3224 6.77891C10.9307 6.38724 10.4599 6.19141 9.90991 6.19141C9.35991 6.19141 8.88907 6.38724 8.49741 6.77891C8.10574 7.17057 7.90991 7.64141 7.90991 8.19141C7.90991 8.74141 8.10574 9.21224 8.49741 9.60391C8.88907 9.99557 9.35991 10.1914 9.90991 10.1914Z" fill="#1C1B1F"/>
</g>
</svg>
