<svg width="35" height="35" viewBox="0 0 35 35" fill="none" xmlns="http://www.w3.org/2000/svg">
<g id="ant-design:instagram-filled">
<path id="Vector" d="M17.4966 13.3316C15.2014 13.3316 13.3283 15.2047 13.3283 17.5C13.3283 19.7953 15.2014 21.6684 17.4966 21.6684C19.7919 21.6684 21.665 19.7953 21.665 17.5C21.665 15.2047 19.7919 13.3316 17.4966 13.3316ZM29.9986 17.5C29.9986 15.7738 30.0142 14.0633 29.9173 12.3403C29.8204 10.3389 29.3638 8.56271 27.9004 7.09922C26.4338 5.63261 24.6607 5.17918 22.6594 5.08224C20.9333 4.98529 19.2228 5.00093 17.4998 5.00093C15.7736 5.00093 14.0631 4.98529 12.3401 5.08224C10.3388 5.17918 8.56265 5.63573 7.09918 7.09922C5.6326 8.56584 5.17917 10.3389 5.08223 12.3403C4.98529 14.0664 5.00093 15.777 5.00093 17.5C5.00093 19.223 4.98529 20.9367 5.08223 22.6597C5.17917 24.6611 5.63572 26.4373 7.09918 27.9008C8.56577 29.3674 10.3388 29.8208 12.3401 29.9178C14.0663 30.0147 15.7768 29.9991 17.4998 29.9991C19.2259 29.9991 20.9364 30.0147 22.6594 29.9178C24.6607 29.8208 26.4369 29.3643 27.9004 27.9008C29.3669 26.4342 29.8204 24.6611 29.9173 22.6597C30.0174 20.9367 29.9986 19.2262 29.9986 17.5ZM17.4966 23.9137C13.9474 23.9137 11.0831 21.0493 11.0831 17.5C11.0831 13.9507 13.9474 11.0863 17.4966 11.0863C21.0458 11.0863 23.9102 13.9507 23.9102 17.5C23.9102 21.0493 21.0458 23.9137 17.4966 23.9137ZM24.1729 12.3215C23.3442 12.3215 22.675 11.6523 22.675 10.8236C22.675 9.99493 23.3442 9.32573 24.1729 9.32573C25.0016 9.32573 25.6708 9.99493 25.6708 10.8236C25.671 11.0204 25.6324 11.2153 25.5572 11.3971C25.4821 11.579 25.3717 11.7442 25.2326 11.8833C25.0935 12.0225 24.9282 12.1328 24.7464 12.208C24.5646 12.2832 24.3697 12.3217 24.1729 12.3215Z" fill="#9b9b9b"/>
</g>
</svg>
