<svg width="35" height="35" viewBox="0 0 35 35" fill="none" xmlns="http://www.w3.org/2000/svg">
<g id="uil:linkedin">
<path id="Vector" d="M28.1514 5.00017H6.84859C6.60913 4.99687 6.37135 5.04048 6.14885 5.12853C5.92635 5.21657 5.72347 5.34732 5.55181 5.51331C5.38015 5.67929 5.24306 5.87727 5.14838 6.09592C5.0537 6.31457 5.00328 6.54963 5 6.78765V28.2123C5.00328 28.4504 5.0537 28.6854 5.14838 28.9041C5.24306 29.1227 5.38015 29.3207 5.55181 29.4867C5.72347 29.6527 5.92635 29.7834 6.14885 29.8715C6.37135 29.9595 6.60913 30.0031 6.84859 29.9998H28.1514C28.3909 30.0031 28.6286 29.9595 28.8511 29.8715C29.0737 29.7834 29.2765 29.6527 29.4482 29.4867C29.6199 29.3207 29.7569 29.1227 29.8516 28.9041C29.9463 28.6854 29.9967 28.4504 30 28.2123V6.78765C29.9967 6.54963 29.9463 6.31457 29.8516 6.09592C29.7569 5.87727 29.6199 5.67929 29.4482 5.51331C29.2765 5.34732 29.0737 5.21657 28.8511 5.12853C28.6286 5.04048 28.3909 4.99687 28.1514 5.00017ZM12.583 25.9249H8.81036V14.675H12.583V25.9249ZM10.6967 13.1001C10.1764 13.1001 9.6774 12.8946 9.3095 12.5289C8.9416 12.1632 8.73491 11.6673 8.73491 11.1501C8.73491 10.6329 8.9416 10.1369 9.3095 9.77125C9.6774 9.40556 10.1764 9.20012 10.6967 9.20012C10.973 9.16897 11.2527 9.19618 11.5177 9.27997C11.7827 9.36375 12.0268 9.50222 12.2342 9.68631C12.4416 9.8704 12.6076 10.096 12.7212 10.3482C12.8348 10.6005 12.8935 10.8737 12.8935 11.1501C12.8935 11.4265 12.8348 11.6997 12.7212 11.952C12.6076 12.2042 12.4416 12.4298 12.2342 12.6139C12.0268 12.798 11.7827 12.9364 11.5177 13.0202C11.2527 13.104 10.973 13.1312 10.6967 13.1001ZM26.1896 25.9249H22.417V19.8875C22.417 18.375 21.8763 17.3875 20.5055 17.3875C20.0813 17.3906 19.6682 17.5228 19.322 17.7665C18.9757 18.0101 18.7129 18.3533 18.5689 18.75C18.4705 19.0438 18.4279 19.3532 18.4432 19.6625V25.9124H14.6705V14.6625H18.4432V16.25C18.7859 15.6589 19.2843 15.1719 19.8849 14.8415C20.4854 14.5111 21.1652 14.3499 21.8511 14.375C24.3662 14.375 26.1896 15.9875 26.1896 19.45V25.9249Z" fill="#9b9b9b"/>
</g>
</svg>
