<svg width="25" height="25" viewBox="0 0 25 25" fill="none" xmlns="http://www.w3.org/2000/svg">
<mask id="mask0_610_47340" style="mask-type:alpha" maskUnits="userSpaceOnUse" x="0" y="0" width="25" height="25">
<rect x="0.46875" y="0.660156" width="24" height="24" fill="#D9D9D9"/>
</mask>
<g mask="url(#mask0_610_47340)">
<path d="M12.4716 12.5254C12.9691 12.5254 13.3945 12.3482 13.7476 11.9939C14.101 11.6396 14.2776 11.2137 14.2776 10.7162C14.2776 10.2187 14.1005 9.79324 13.7461 9.43991C13.3918 9.08674 12.9658 8.91016 12.4681 8.91016C11.9706 8.91016 11.5453 9.08732 11.1921 9.44166C10.8388 9.79599 10.6621 10.222 10.6621 10.7197C10.6621 11.2172 10.8393 11.6425 11.1936 11.9957C11.548 12.3488 11.974 12.5254 12.4716 12.5254ZM12.4699 20.1737C14.4262 18.4223 15.9233 16.7425 16.9611 15.1342C17.999 13.5258 18.5179 12.1172 18.5179 10.9082C18.5179 9.08516 17.9387 7.58649 16.7804 6.41216C15.622 5.23782 14.1852 4.65066 12.4699 4.65066C10.7545 4.65066 9.31771 5.23782 8.15937 6.41216C7.00104 7.58649 6.42188 9.08516 6.42188 10.9082C6.42188 12.1172 6.94079 13.5258 7.97863 15.1342C9.01646 16.7425 10.5135 18.4223 12.4699 20.1737ZM12.4699 22.1697C9.95321 19.989 8.06604 17.9596 6.80837 16.0814C5.55071 14.2031 4.92188 12.4787 4.92188 10.9082C4.92188 8.60049 5.66829 6.73224 7.16112 5.30341C8.65412 3.87457 10.4237 3.16016 12.4699 3.16016C14.516 3.16016 16.2856 3.87457 17.7786 5.30341C19.2715 6.73224 20.0179 8.60049 20.0179 10.9082C20.0179 12.4787 19.389 14.2031 18.1314 16.0814C16.8737 17.9596 14.9865 19.989 12.4699 22.1697Z" fill="white"/>
</g>
</svg>
