<svg width="24" height="25" viewBox="0 0 24 25" fill="none" xmlns="http://www.w3.org/2000/svg">
<mask id="mask0_3906_17358" style="mask-type:alpha" maskUnits="userSpaceOnUse" x="0" y="0" width="24" height="25">
<rect y="0.691162" width="24" height="24" fill="#D9D9D9"/>
</mask>
<g mask="url(#mask0_3906_17358)">
<path d="M12.0029 12.5564C12.5004 12.5564 12.9257 12.3792 13.2789 12.0249C13.6322 11.6706 13.8089 11.2447 13.8089 10.7472C13.8089 10.2497 13.6317 9.82425 13.2774 9.47091C12.923 9.11775 12.497 8.94116 11.9994 8.94116C11.5019 8.94116 11.0765 9.11833 10.7234 9.47266C10.37 9.827 10.1934 10.253 10.1934 10.7507C10.1934 11.2482 10.3705 11.6735 10.7249 12.0267C11.0792 12.3798 11.5052 12.5564 12.0029 12.5564ZM12.0011 20.2047C13.9575 18.4533 15.4545 16.7735 16.4924 15.1652C17.5302 13.5568 18.0491 12.1482 18.0491 10.9392C18.0491 9.11616 17.47 7.6175 16.3116 6.44316C15.1533 5.26883 13.7165 4.68166 12.0011 4.68166C10.2858 4.68166 8.84896 5.26883 7.69062 6.44316C6.53229 7.6175 5.95312 9.11616 5.95312 10.9392C5.95312 12.1482 6.47204 13.5568 7.50988 15.1652C8.54771 16.7735 10.0448 18.4533 12.0011 20.2047ZM12.0011 22.2007C9.48446 20.02 7.59729 17.9906 6.33962 16.1124C5.08196 14.2341 4.45312 12.5097 4.45312 10.9392C4.45312 8.6315 5.19954 6.76325 6.69237 5.33441C8.18537 3.90558 9.95496 3.19116 12.0011 3.19116C14.0473 3.19116 15.8169 3.90558 17.3099 5.33441C18.8027 6.76325 19.5491 8.6315 19.5491 10.9392C19.5491 12.5097 18.9203 14.2341 17.6626 16.1124C16.405 17.9906 14.5178 20.02 12.0011 22.2007Z" fill="#1C1B1F"/>
</g>
</svg>
