<svg width="16" height="20" viewBox="0 0 16 20" fill="none" xmlns="http://www.w3.org/2000/svg">
<path d="M8.00287 9.86525C8.50037 9.86525 8.92571 9.68808 9.27887 9.33375C9.63221 8.97942 9.80888 8.5535 9.80888 8.056C9.80888 7.5585 9.63171 7.13308 9.27737 6.77975C8.92304 6.42658 8.49704 6.25 7.99937 6.25C7.50187 6.25 7.07654 6.42717 6.72338 6.7815C6.37004 7.13583 6.19338 7.56183 6.19338 8.0595C6.19338 8.557 6.37054 8.98233 6.72488 9.3355C7.07921 9.68867 7.50521 9.86525 8.00287 9.86525ZM8.00112 17.5135C9.95746 15.7622 11.4545 14.0823 12.4924 12.474C13.5302 10.8657 14.0491 9.457 14.0491 8.248C14.0491 6.425 13.47 4.92633 12.3116 3.752C11.1533 2.57767 9.71646 1.9905 8.00112 1.9905C6.28579 1.9905 4.84896 2.57767 3.69062 3.752C2.53229 4.92633 1.95312 6.425 1.95312 8.248C1.95312 9.457 2.47204 10.8657 3.50988 12.474C4.54771 14.0823 6.04479 15.7622 8.00112 17.5135ZM8.00112 19.5095C5.48446 17.3288 3.59729 15.2994 2.33962 13.4212C1.08196 11.5429 0.453125 9.8185 0.453125 8.248C0.453125 5.94033 1.19954 4.07208 2.69237 2.64325C4.18537 1.21442 5.95496 0.5 8.00112 0.5C10.0473 0.5 11.8169 1.21442 13.3099 2.64325C14.8027 4.07208 15.5491 5.94033 15.5491 8.248C15.5491 9.8185 14.9203 11.5429 13.6626 13.4212C12.405 15.2994 10.5178 17.3288 8.00112 19.5095Z" fill="#333333"/>
</svg>
