<svg width="25" height="25" viewBox="0 0 25 25" fill="none" xmlns="http://www.w3.org/2000/svg">
<mask id="mask0_610_47350" style="mask-type:alpha" maskUnits="userSpaceOnUse" x="0" y="0" width="25" height="25">
<rect x="0.46875" y="0.660156" width="24" height="24" fill="#D9D9D9"/>
</mask>
<g mask="url(#mask0_610_47350)">
<path d="M4.7765 20.1602C4.27133 20.1602 3.84375 19.9852 3.49375 19.6352C3.14375 19.2852 2.96875 18.8576 2.96875 18.3524V6.96791C2.96875 6.46274 3.14375 6.03516 3.49375 5.68516C3.84375 5.33516 4.27133 5.16016 4.7765 5.16016H20.161C20.6662 5.16016 21.0938 5.33516 21.4438 5.68516C21.7938 6.03516 21.9688 6.46274 21.9688 6.96791V18.3524C21.9688 18.8576 21.7938 19.2852 21.4438 19.6352C21.0938 19.9852 20.6662 20.1602 20.161 20.1602H4.7765ZM12.4688 13.2179L4.46875 8.10241V18.3524C4.46875 18.4422 4.49758 18.516 4.55525 18.5737C4.61292 18.6313 4.68667 18.6602 4.7765 18.6602H20.161C20.2508 18.6602 20.3246 18.6313 20.3822 18.5737C20.4399 18.516 20.4688 18.4422 20.4688 18.3524V8.10241L12.4688 13.2179ZM12.4688 11.6602L20.315 6.66016H4.6225L12.4688 11.6602ZM4.46875 8.10241V6.66016V18.3524C4.46875 18.4422 4.49758 18.516 4.55525 18.5737C4.61292 18.6313 4.68667 18.6602 4.7765 18.6602H4.46875V8.10241Z" fill="white"/>
</g>
</svg>
