<svg width="25" height="25" viewBox="0 0 25 25" fill="none" xmlns="http://www.w3.org/2000/svg">
<mask id="mask0_3491_89180" style="mask-type:alpha" maskUnits="userSpaceOnUse" x="0" y="0" width="25" height="25">
<rect x="0.734375" y="0.15625" width="24" height="24" fill="#D9D9D9"/>
</mask>
<g mask="url(#mask0_3491_89180)">
<path d="M12.7372 12.0215C13.2347 12.0215 13.6601 11.8443 14.0132 11.49C14.3666 11.1357 14.5433 10.7098 14.5433 10.2122C14.5433 9.71475 14.3661 9.28933 14.0117 8.936C13.6574 8.58283 13.2314 8.40625 12.7337 8.40625C12.2362 8.40625 11.8109 8.58342 11.4578 8.93775C11.1044 9.29208 10.9278 9.71808 10.9278 10.2158C10.9278 10.7133 11.1049 11.1386 11.4593 11.4918C11.8136 11.8449 12.2396 12.0215 12.7372 12.0215ZM12.7355 19.6698C14.6918 17.9184 16.1889 16.2386 17.2268 14.6302C18.2646 13.0219 18.7835 11.6132 18.7835 10.4042C18.7835 8.58125 18.2043 7.08258 17.046 5.90825C15.8877 4.73392 14.4508 4.14675 12.7355 4.14675C11.0202 4.14675 9.58333 4.73392 8.425 5.90825C7.26667 7.08258 6.6875 8.58125 6.6875 10.4042C6.6875 11.6132 7.20642 13.0219 8.24425 14.6302C9.28208 16.2386 10.7792 17.9184 12.7355 19.6698ZM12.7355 21.6658C10.2188 19.4851 8.33167 17.4557 7.074 15.5775C5.81633 13.6992 5.1875 11.9747 5.1875 10.4042C5.1875 8.09658 5.93392 6.22833 7.42675 4.7995C8.91975 3.37067 10.6893 2.65625 12.7355 2.65625C14.7817 2.65625 16.5512 3.37067 18.0442 4.7995C19.5371 6.22833 20.2835 8.09658 20.2835 10.4042C20.2835 11.9747 19.6547 13.6992 18.397 15.5775C17.1393 17.4557 15.2522 19.4851 12.7355 21.6658Z" fill="#6E6E6E"/>
</g>
</svg>
