<svg width="17" height="17" viewBox="0 0 17 17" fill="none" xmlns="http://www.w3.org/2000/svg">
<path d="M16.5781 8.02221C16.5781 12.4811 13.0847 15.7822 8.57812 15.7822C7.76885 15.7822 6.99221 15.6753 6.26229 15.4747C6.12053 15.4353 5.96981 15.4465 5.83508 15.5057L4.24725 16.2068C3.83189 16.3902 3.36309 16.0948 3.34932 15.6411L3.3058 14.2177C3.30036 14.0424 3.22164 13.8785 3.09076 13.7617C1.53396 12.3697 0.578125 10.3547 0.578125 8.02221C0.578125 3.56333 4.07157 0.262207 8.57812 0.262207C13.0847 0.262207 16.5781 3.56333 16.5781 8.02221Z" fill="#0866FF"/>
<path d="M10.7482 10.2559L13.5335 5.95135C13.8135 5.51872 13.2947 5.01504 12.8704 5.30784L9.96294 7.31326C9.86502 7.38078 9.73575 7.3827 9.63591 7.31806L7.05514 5.64832C6.83658 5.50688 6.54506 5.5696 6.40394 5.78783L3.61838 10.0924C3.33838 10.5251 3.85709 11.0287 4.28141 10.7359L7.18954 8.7302C7.28745 8.66268 7.41673 8.66076 7.51657 8.7254L10.0967 10.3948C10.3153 10.5363 10.6068 10.4735 10.7482 10.2553V10.2559Z" fill="white"/>
</svg>
