<svg width="24" height="25" viewBox="0 0 24 25" fill="none" xmlns="http://www.w3.org/2000/svg">
<mask id="mask0_5155_27884" style="mask-type:alpha" maskUnits="userSpaceOnUse" x="0" y="0" width="24" height="25">
<rect y="0.686523" width="24" height="24" fill="#D9D9D9"/>
</mask>
<g mask="url(#mask0_5155_27884)">
<path d="M7.25 13.4365H16.75V11.9365H7.25V13.4365ZM12.0017 22.1865C10.6877 22.1865 9.45267 21.9372 8.2965 21.4385C7.14033 20.9399 6.13467 20.2631 5.2795 19.4083C4.42433 18.5534 3.74725 17.5482 3.24825 16.3925C2.74942 15.2369 2.5 14.0021 2.5 12.6883C2.5 11.3743 2.74933 10.1392 3.248 8.98302C3.74667 7.82686 4.42342 6.82119 5.27825 5.96602C6.13308 5.11086 7.13833 4.43377 8.294 3.93477C9.44967 3.43594 10.6844 3.18652 11.9983 3.18652C13.3123 3.18652 14.5473 3.43586 15.7035 3.93452C16.8597 4.43319 17.8653 5.10994 18.7205 5.96477C19.5757 6.81961 20.2528 7.82486 20.7518 8.98052C21.2506 10.1362 21.5 11.3709 21.5 12.6848C21.5 13.9988 21.2507 15.2339 20.752 16.39C20.2533 17.5462 19.5766 18.5519 18.7218 19.407C17.8669 20.2622 16.8617 20.9393 15.706 21.4383C14.5503 21.9371 13.3156 22.1865 12.0017 22.1865ZM12 20.6865C14.2333 20.6865 16.125 19.9115 17.675 18.3615C19.225 16.8115 20 14.9199 20 12.6865C20 10.4532 19.225 8.56152 17.675 7.01152C16.125 5.46152 14.2333 4.68652 12 4.68652C9.76667 4.68652 7.875 5.46152 6.325 7.01152C4.775 8.56152 4 10.4532 4 12.6865C4 14.9199 4.775 16.8115 6.325 18.3615C7.875 19.9115 9.76667 20.6865 12 20.6865Z" fill="white"/>
</g>
</svg>
