<svg width="24" height="25" viewBox="0 0 24 25" fill="none" xmlns="http://www.w3.org/2000/svg">
<mask id="mask0_4317_15069" style="mask-type:alpha" maskUnits="userSpaceOnUse" x="0" y="0" width="24" height="25">
<rect y="0.267578" width="24" height="24" fill="#D9D9D9"/>
</mask>
<g mask="url(#mask0_4317_15069)">
<path d="M12.1052 20.6495C9.73605 20.6495 7.72714 19.8252 6.07847 18.1765C4.4298 16.5277 3.60547 14.5187 3.60547 12.1495C3.60547 10.1765 4.21597 8.42271 5.43697 6.88804C6.65814 5.35337 8.28472 4.36429 10.3167 3.92079C10.5271 3.86812 10.7123 3.87321 10.8725 3.93604C11.0328 3.99887 11.163 4.09246 11.263 4.21679C11.363 4.34129 11.422 4.49229 11.44 4.66979C11.4578 4.84729 11.4161 5.02454 11.315 5.20154C11.1085 5.57721 10.9552 5.96821 10.8552 6.37454C10.7552 6.78104 10.7052 7.20604 10.7052 7.64954C10.7052 9.29054 11.2783 10.6841 12.4245 11.8303C13.5706 12.9765 14.9642 13.5495 16.6052 13.5495C17.0964 13.5495 17.5656 13.4874 18.013 13.363C18.4605 13.2387 18.8521 13.0945 19.188 12.9303C19.3521 12.8586 19.5124 12.8333 19.6687 12.8543C19.8252 12.8755 19.9592 12.9277 20.0707 13.011C20.1926 13.0944 20.2832 13.2082 20.3427 13.3525C20.4024 13.4967 20.4091 13.6662 20.363 13.861C20.0078 15.8277 19.0511 17.4508 17.4927 18.7303C15.9344 20.0098 14.1386 20.6495 12.1052 20.6495Z" fill="white"/>
</g>
</svg>
