<svg width="195" height="101" viewBox="0 0 195 101" fill="none" xmlns="http://www.w3.org/2000/svg">
<g clip-path="url(#clip0_742_57432)">
<path d="M24.5621 93.8785H25.7119V100.011H24.5621V97.3278H21.1334V100.011H19.9836V93.8785H21.1402V96.4039H24.569V93.8785H24.5621ZM37.5858 96.9377C37.5858 98.765 36.2786 100.099 34.4377 100.099C32.5967 100.099 31.2964 98.7581 31.2964 96.9377C31.2964 95.1035 32.5967 93.7759 34.4377 93.7759C36.2786 93.7759 37.5858 95.1035 37.5858 96.9377ZM36.4224 96.9377C36.4224 95.6374 35.6353 94.6998 34.4377 94.6998C33.24 94.6998 32.4667 95.6374 32.4598 96.9377C32.4598 98.238 33.2332 99.1756 34.4377 99.1756C35.6353 99.1756 36.4224 98.238 36.4224 96.9377ZM42.3559 93.8785V94.7956H44.6212V100.004H45.7778V94.7956H48.0431V93.8785H42.3627H42.3559ZM54.6952 99.0729V97.3141H57.6996V96.4039H54.6952V94.7887H58.0144V93.8717H53.566V100.004H58.0144V99.0729H54.6952ZM64.8513 99.0798V93.8785H63.6947V100.011H68.1226V99.0798H64.8513ZM76.5884 96.5476L75.4044 96.3012C74.7953 96.1712 74.5079 95.9111 74.5079 95.5005C74.5079 94.994 75.0075 94.6519 75.7397 94.6519C76.5541 94.6519 76.9853 95.0077 77.1632 95.4731H78.3198C78.0735 94.4534 77.2112 93.7759 75.7329 93.7759C74.3573 93.7759 73.4129 94.556 73.4129 95.5894C73.4129 96.575 74.1657 97.0403 75.1101 97.2388L76.2667 97.4852C76.9785 97.6357 77.2522 97.8821 77.2522 98.3133C77.2522 98.8813 76.7321 99.2235 75.9314 99.2235C75.1854 99.2235 74.6105 98.9361 74.3915 98.3064H73.2144C73.4608 99.4425 74.4942 100.106 75.9314 100.106C77.3412 100.106 78.3609 99.3946 78.3609 98.2517C78.3609 97.3346 77.6628 96.7734 76.5952 96.5544L76.5884 96.5476ZM92.021 95.5073C91.1314 95.5073 90.4264 96.0959 90.4264 96.9445C90.4264 97.7863 91.1382 98.3749 92.021 98.3749C92.9107 98.3749 93.6156 97.7863 93.6225 96.9445C93.6225 96.0959 92.9107 95.5073 92.021 95.5073ZM109.26 97.4783L111.238 100.004H109.931L108.035 97.5194H107.214V100.004H106.064V93.8717H108.692C110.102 93.8717 111.012 94.5081 111.012 95.7058C111.012 96.7324 110.349 97.3209 109.267 97.4715L109.26 97.4783ZM108.658 96.6502C109.425 96.6502 109.856 96.2807 109.856 95.7126C109.856 95.1446 109.425 94.775 108.658 94.775H107.207V96.6502H108.658ZM117.781 97.3209H120.785V96.4107H117.781V94.7956H121.1V93.8785H116.652V100.004H121.1V99.0729H117.781V97.3141V97.3209ZM129.641 96.5476L128.457 96.3012C127.848 96.1712 127.561 95.9111 127.561 95.5005C127.561 94.9872 128.06 94.6519 128.793 94.6519C129.6 94.6519 130.038 95.0077 130.216 95.4731H131.373C131.126 94.4534 130.264 93.7759 128.786 93.7759C127.41 93.7759 126.466 94.556 126.466 95.5894C126.466 96.575 127.218 97.0403 128.163 97.2388L129.32 97.4852C130.031 97.6357 130.305 97.8821 130.305 98.3133C130.305 98.8813 129.785 99.2235 128.984 99.2235C128.238 99.2235 127.663 98.9361 127.444 98.3064H126.267C126.514 99.4425 127.547 100.106 128.984 100.106C130.394 100.106 131.414 99.3946 131.414 98.2517C131.414 97.3346 130.716 96.7734 129.648 96.5544L129.641 96.5476ZM142.904 96.9377C142.904 98.765 141.597 100.099 139.756 100.099C137.915 100.099 136.615 98.765 136.615 96.9377C136.615 95.1035 137.915 93.7759 139.756 93.7759C141.597 93.7759 142.904 95.1035 142.904 96.9377ZM141.741 96.9377C141.741 95.6374 140.954 94.6998 139.756 94.6998C138.559 94.6998 137.778 95.6374 137.778 96.9377C137.778 98.238 138.552 99.1756 139.756 99.1756C140.954 99.1756 141.741 98.238 141.741 96.9377ZM151.692 97.4783L153.67 100.004H152.362L150.467 97.5194H149.645V100.004H148.496V93.8717H151.124C152.534 93.8717 153.444 94.515 153.444 95.7126C153.444 96.7392 152.78 97.3278 151.699 97.4783H151.692ZM151.09 96.6502C151.856 96.6502 152.287 96.2807 152.287 95.7126C152.287 95.1446 151.856 94.775 151.09 94.775H149.639V96.6502H151.09ZM158.549 93.8785V94.7956H160.814V100.004H161.971V94.7956H164.236V93.8785H158.556H158.549ZM172.545 96.5544L171.361 96.308C170.752 96.178 170.464 95.918 170.464 95.5073C170.464 95.0009 170.964 94.6587 171.696 94.6587C172.504 94.6587 172.942 95.0146 173.12 95.4799H174.276C174.03 94.4602 173.167 93.7827 171.689 93.7827C170.314 93.7827 169.369 94.5629 169.369 95.6031C169.369 96.5886 170.122 97.054 171.066 97.2525L172.223 97.4989C172.935 97.6494 173.209 97.8958 173.209 98.327C173.209 98.895 172.688 99.2372 171.888 99.2372C171.142 99.2372 170.567 98.9497 170.348 98.3201H169.171C169.417 99.4562 170.444 100.12 171.888 100.12C173.298 100.12 174.317 99.4083 174.317 98.2654C174.317 97.3483 173.619 96.7871 172.552 96.5681L172.545 96.5544ZM19.2514 68.3581C19.2514 70.1854 18.697 71.65 17.6157 72.7313C16.1238 74.2095 13.619 74.9624 10.1697 74.9555C10.1013 74.9555 10.026 74.9555 9.95754 74.9555H4.27038V81.1081H0.109375L0.116219 61.5554H9.57429C16.3565 61.5554 19.2514 63.5949 19.2514 68.3581ZM15.0082 68.3308C15.0082 65.6001 13.1125 65.0868 9.60167 65.08H4.27722V71.431H9.71117C13.5231 71.431 15.0082 70.5618 15.0082 68.3308ZM90.9876 61.5623H71.0381V65.1553H78.6962V81.1081H83.0215V65.1621H90.9876V61.5623ZM108.898 81.1081H112.888L112.895 61.5623H108.905L108.898 81.1081ZM149.899 75.6194L149.495 74.9281L138.23 61.5554H133.98L133.973 81.1012H138.025V66.8799L138.476 67.5916L149.858 81.1081H153.937L153.943 61.5623H149.899V75.6194ZM57.2479 81.1149H52.731L50.7874 76.7896H40.3233L38.2975 81.1081H33.8559L43.3551 61.5623H47.8993L57.2411 81.1149H57.2479ZM49.2544 73.3746L45.6477 65.3948L41.9179 73.3746H49.2544ZM194.109 81.1149H189.586L187.642 76.7896H177.178L175.152 81.1081H170.711L180.203 61.5623H184.747L194.096 81.1149H194.109ZM186.109 73.3746L182.502 65.3948L178.773 73.3746H186.109ZM117.836 31.1007C117.836 37.1164 112.949 41.996 106.934 41.996C102.465 41.996 98.6253 39.2995 96.9417 35.4534C95.2581 39.3064 91.4188 41.996 86.9498 41.9891C80.9273 41.9891 76.0546 37.1027 76.0546 31.087C76.0546 26.6181 78.751 22.7787 82.5972 21.102C78.751 19.4184 76.0546 15.5791 76.0614 11.1101C76.0682 5.09444 80.9478 0.214844 86.9703 0.214844C91.4393 0.214844 95.2787 2.91128 96.9554 6.75748C98.6389 2.91128 102.478 0.214844 106.947 0.221688C112.963 0.221688 117.843 5.10813 117.843 11.1238C117.843 15.5928 115.146 19.4321 111.3 21.1088C115.146 22.7924 117.843 26.6317 117.836 31.1007ZM96.0452 11.117C96.0452 6.10048 91.98 2.03528 86.9703 2.03528C81.9539 2.03528 77.8887 6.10048 77.8818 11.1101C77.8818 16.1266 81.947 20.1918 86.9635 20.1918H88.7771V18.3782H86.9635C82.9531 18.3782 79.6954 15.1205 79.7023 11.1101C79.7023 7.09966 82.9599 3.84204 86.9703 3.84888C90.9808 3.84888 94.2316 7.10651 94.2316 11.117V20.1986V22.0191V31.1007C94.2316 35.118 90.9739 38.3619 86.9635 38.3619C82.9531 38.3619 79.6954 35.1043 79.7023 31.0939C79.7023 27.0834 82.9599 23.8326 86.9703 23.8326H88.784V22.0191H86.9703C81.9539 22.0191 77.8887 26.0842 77.8818 31.0939C77.8818 36.1104 81.947 40.1755 86.9635 40.1755C91.98 40.1755 96.0452 36.1172 96.0452 31.1007V22.0191V20.1986V11.117ZM86.9567 34.7279C84.9514 34.7279 83.3226 33.0991 83.3226 31.0939C83.3226 29.0887 84.9514 27.4667 86.9567 27.4667H88.7703V25.6531H86.9567C83.9454 25.6531 81.509 28.0895 81.5022 31.1007C81.5022 34.112 83.9386 36.5484 86.9498 36.5484C89.9611 36.5484 92.3975 34.112 92.3975 31.1007V22.0191V20.1986V11.117C92.3975 8.1057 89.9611 5.66932 86.9567 5.66932C83.9454 5.66932 81.5022 8.1057 81.5022 11.117C81.5022 14.1282 83.9386 16.5646 86.9498 16.5646H88.7634V14.751H86.9498C84.9446 14.751 83.3158 13.1222 83.3158 11.117C83.3158 9.11173 84.9446 7.48291 86.9498 7.48291C88.955 7.48291 90.5838 9.11173 90.5838 11.117V20.1986V22.0191V31.1007C90.5838 33.1059 88.955 34.7348 86.9498 34.7348L86.9567 34.7279ZM88.784 11.117C88.784 10.1109 87.9695 9.30335 86.9703 9.30335C85.9643 9.30335 85.1499 10.1178 85.1499 11.117C85.1499 12.1161 85.9643 12.9305 86.9703 12.9305H88.784V11.117ZM86.9635 29.2734C85.9575 29.2734 85.1431 30.0878 85.1431 31.087C85.1431 32.0931 85.9575 32.9075 86.9635 32.9075C87.9695 32.9075 88.7771 32.0931 88.7771 31.087V29.2734H86.9635ZM116.022 31.1007C116.022 26.0842 111.964 22.0191 106.947 22.0191H105.127V23.8326H106.947C110.958 23.8326 114.209 27.0903 114.209 31.1007C114.209 35.1112 110.958 38.3688 106.94 38.3619C102.923 38.3619 99.6724 35.1043 99.6792 31.0939V22.0122V20.1918V11.1101C99.6792 7.09966 102.937 3.84204 106.947 3.84888C110.958 3.84888 114.209 7.10651 114.209 11.117C114.209 15.1274 110.958 18.385 106.94 18.3782H105.12V20.1918H106.94C111.957 20.1918 116.022 16.1334 116.022 11.117C116.022 6.10048 111.964 2.03528 106.947 2.03528C101.931 2.03528 97.8656 6.10048 97.8588 11.1101V20.1918V22.0122V31.0939C97.8588 36.1104 101.917 40.1755 106.934 40.1755C111.95 40.1755 116.015 36.1172 116.015 31.0939L116.022 31.1007ZM106.947 7.48976C108.952 7.48976 110.574 9.11857 110.574 11.1238C110.574 13.129 108.946 14.7578 106.94 14.7578H105.12V16.5714H106.94C109.952 16.5714 112.388 14.135 112.388 11.1238C112.388 8.11254 109.952 5.67616 106.94 5.67616C103.929 5.67616 101.486 8.11254 101.486 11.1238V20.2055V22.0259V31.1076C101.486 34.1188 103.922 36.5552 106.934 36.5552C109.945 36.5552 112.381 34.1188 112.381 31.1076C112.381 28.0963 109.945 25.6599 106.934 25.6599H105.113V27.4735H106.934C108.939 27.4735 110.568 29.1023 110.561 31.1076C110.561 33.1128 108.932 34.7416 106.927 34.7416C104.922 34.7416 103.293 33.1128 103.293 31.1076V22.0259V20.2055V11.1238C103.293 9.11857 104.922 7.48976 106.927 7.48976H106.947ZM105.12 31.1007C105.12 32.1068 105.934 32.9212 106.934 32.9212C107.94 32.9212 108.747 32.1068 108.747 31.1007C108.747 30.1015 107.933 29.2871 106.934 29.2871H105.113V31.1007H105.12ZM106.947 12.9374C107.953 12.9374 108.761 12.123 108.761 11.1238C108.761 10.1178 107.946 9.3102 106.947 9.3102C105.941 9.3102 105.127 10.1246 105.127 11.1238V12.9374H106.947Z" fill="#53645C"/>
</g>
<defs>
<clipPath id="clip0_742_57432">
<rect width="194" height="99.8915" fill="white" transform="translate(0.109375 0.214844)"/>
</clipPath>
</defs>
</svg>
