<svg width="50" height="50" viewBox="0 0 50 50" fill="none" xmlns="http://www.w3.org/2000/svg">
<path d="M49.9828 36.9618C49.9828 44.1612 44.1364 50 36.9382 50C31.5912 50 27.0019 46.7792 24.9871 42.1633C22.9723 46.7706 18.383 49.9914 13.036 49.9914C5.83778 49.9914 0 44.144 0 36.9445C0 31.5966 3.22886 27.0065 7.82676 24.9914C3.22025 22.9762 0 18.3775 0 13.0382C0.0086103 5.83879 5.84639 0 13.0532 0C18.4002 0 22.9895 3.22942 25.0043 7.83672C27.0191 3.22942 31.6084 0.00861178 36.964 0.00861178C44.1622 0.00861178 50 5.85601 50 13.0555C50 18.4034 46.7711 22.9935 42.1646 25.0086C46.7625 27.0238 49.9828 31.6138 49.9828 36.9618ZM23.9108 13.0468C23.9108 7.04444 19.046 2.17878 13.0532 2.17878C7.06044 2.17878 2.18702 7.04444 2.18702 13.0382C2.18702 19.032 7.05183 23.9063 13.0532 23.9063H15.223V21.7361H13.0532C8.24867 21.7361 4.36542 17.835 4.36542 13.0382C4.36542 8.24147 8.25728 4.34034 13.0618 4.34895C17.8664 4.34895 21.7496 8.25009 21.7496 13.0468V36.9618C21.7496 41.7671 17.8578 45.6511 13.0532 45.6511C8.24867 45.6511 4.35681 41.7585 4.36542 36.9532C4.36542 32.1478 8.25728 28.2639 13.0618 28.2639H15.2316V26.0937H13.0618C7.06044 26.0937 2.19563 30.9594 2.19563 36.9618C2.19563 42.9642 7.06044 47.8298 13.0618 47.8298C19.0632 47.8298 23.928 42.9728 23.928 36.9704V23.9235L23.9108 13.0468ZM13.036 41.3021C10.6337 41.3021 8.68779 39.3558 8.68779 36.9532C8.68779 34.5505 10.6337 32.6128 13.036 32.6128H15.2058V30.4426H13.036C9.43689 30.4426 6.518 33.362 6.50939 36.9618C6.50939 40.5615 9.42828 43.4809 13.0274 43.4809C16.6265 43.4809 19.5454 40.5615 19.5454 36.9618V13.0468C19.5454 9.44712 16.6265 6.52773 13.0274 6.52773C9.42828 6.52773 6.50939 9.44712 6.50078 13.0468C6.50078 16.6466 9.41967 19.566 13.0188 19.566H15.1886V17.3958H13.0188C10.6165 17.3958 8.67057 15.4495 8.67057 13.0468C8.67057 10.6442 10.6165 8.6979 13.0188 8.6979C15.421 8.6979 17.367 10.6442 17.367 13.0468V36.9618C17.3842 39.3558 15.4383 41.3021 13.036 41.3021ZM15.2144 13.0468C15.2144 11.8498 14.2414 10.8767 13.0446 10.8767C11.8478 10.8767 10.8662 11.8498 10.8662 13.0468C10.8662 14.2439 11.8392 15.217 13.036 15.217H15.2058V13.0468H15.2144ZM13.036 34.7744C11.8306 34.7744 10.8576 35.7475 10.8576 36.9445C10.8576 38.1416 11.8305 39.1233 13.0274 39.1233C14.2242 39.1233 15.1972 38.1502 15.1972 36.9532V34.783H13.036V34.7744ZM47.8044 36.9618C47.8044 30.9594 42.9482 26.0937 36.9468 26.0937H34.7684V28.2639H36.9468C41.7513 28.2639 45.6346 32.1564 45.6346 36.9618C45.6346 41.7671 41.7427 45.6597 36.9382 45.6511C32.1336 45.6511 28.2418 41.7585 28.2504 36.9532V13.0382C28.2504 8.23286 32.1422 4.34034 36.9468 4.34895C41.7513 4.34895 45.6346 8.25009 45.6346 13.0468C45.6346 17.8436 41.7427 21.7447 36.9382 21.7361H34.7598V23.9063H36.9382C42.9396 23.9063 47.8044 19.0493 47.8044 13.0468C47.8044 7.04444 42.9482 2.17878 36.9468 2.17878C30.9454 2.17878 26.0806 7.04444 26.0806 13.0382V36.9532C26.0806 42.9556 30.9454 47.8212 36.9468 47.8212C42.9396 47.8298 47.8044 42.9642 47.8044 36.9618ZM36.9554 8.70651C39.3577 8.70651 41.295 10.6528 41.295 13.0555C41.295 15.4581 39.3491 17.4044 36.9468 17.4044H34.7684V19.5746H36.9468C40.5459 19.5746 43.4648 16.6552 43.4648 13.0555C43.4648 9.45574 40.5459 6.53634 36.9468 6.53634C33.3477 6.53634 30.4288 9.45574 30.4202 13.0555V36.9704C30.4202 40.5701 33.3391 43.4895 36.9382 43.4895C40.5373 43.4895 43.4562 40.5701 43.4562 36.9704C43.4562 33.3707 40.5373 30.4513 36.9382 30.4513H34.7598V32.6214H36.9382C39.3405 32.6214 41.2864 34.5677 41.2778 36.9704C41.2778 39.3731 39.3318 41.3193 36.9296 41.3193C34.5273 41.3193 32.5814 39.3731 32.5814 36.9704V13.0555C32.6072 10.6442 34.5531 8.6979 36.9554 8.70651ZM34.7684 36.9618C34.7684 38.1588 35.7413 39.1405 36.9382 39.1405C38.135 39.1405 39.108 38.1674 39.108 36.9618C39.108 35.7561 38.135 34.7916 36.9382 34.7916H34.7598V36.9618H34.7684ZM36.9468 15.2256C38.1436 15.2256 39.1166 14.2525 39.1166 13.0555C39.1166 11.8584 38.1436 10.8853 36.9468 10.8853C35.75 10.8853 34.7684 11.8584 34.7684 13.0555V15.2256H36.9468Z" fill="#53645C"/>
</svg>
