<svg width="2328" height="463" viewBox="0 0 2328 463" fill="none" xmlns="http://www.w3.org/2000/svg">
<path d="M293.433 387.877H307.23V461.461H293.433V429.268H252.288V461.461H238.491V387.877H252.37V418.181H293.515V387.877H293.433ZM449.717 424.587C449.717 446.514 434.031 462.529 411.939 462.529C389.848 462.529 374.244 446.432 374.244 424.587C374.244 402.577 389.848 386.645 411.939 386.645C434.031 386.645 449.717 402.577 449.717 424.587ZM435.756 424.587C435.756 408.983 426.311 397.732 411.939 397.732C397.568 397.732 388.287 408.983 388.205 424.587C388.205 440.191 397.485 451.442 411.939 451.442C426.311 451.442 435.756 440.191 435.756 424.587ZM506.958 387.877V398.882H534.142V461.379H548.021V398.882H575.204V387.877H507.04H506.958ZM655.03 450.21V429.104H691.083V418.181H655.03V398.8H694.86V387.795H641.479V461.379H694.86V450.21H655.03ZM776.903 450.292V387.877H763.024V461.461H816.159V450.292H776.903ZM917.748 419.906L903.54 416.949C896.231 415.389 892.782 412.268 892.782 407.34C892.782 401.263 898.777 397.157 907.564 397.157C917.337 397.157 922.511 401.427 924.646 407.012H938.526C935.569 394.775 925.221 386.645 907.482 386.645C890.975 386.645 879.642 396.007 879.642 408.408C879.642 420.234 888.676 425.819 900.009 428.2L913.888 431.157C922.429 432.964 925.714 435.92 925.714 441.094C925.714 447.91 919.473 452.016 909.864 452.016C900.912 452.016 894.014 448.567 891.386 441.012H877.26C880.217 454.645 892.618 462.611 909.864 462.611C926.782 462.611 939.018 454.07 939.018 440.355C939.018 429.35 930.642 422.616 917.83 419.988L917.748 419.906ZM1102.94 407.423C1092.26 407.423 1083.8 414.485 1083.8 424.669C1083.8 434.77 1092.35 441.833 1102.94 441.833C1113.62 441.833 1122.08 434.77 1122.16 424.669C1122.16 414.485 1113.62 407.423 1102.94 407.423ZM1309.81 431.075L1333.55 461.379H1317.86L1295.11 431.567H1285.26V461.379H1271.46V387.795H1303C1319.91 387.795 1330.84 395.432 1330.84 409.804C1330.84 422.123 1322.87 429.186 1309.9 430.993L1309.81 431.075ZM1302.59 421.138C1311.78 421.138 1316.96 416.703 1316.96 409.886C1316.96 403.07 1311.78 398.635 1302.59 398.635H1285.18V421.138H1302.59ZM1412.06 429.186H1448.11V418.263H1412.06V398.882H1451.89V387.877H1398.51V461.379H1451.89V450.21H1412.06V429.104V429.186ZM1554.38 419.906L1540.17 416.949C1532.86 415.389 1529.42 412.268 1529.42 407.34C1529.42 401.181 1535.41 397.157 1544.2 397.157C1553.89 397.157 1559.14 401.427 1561.28 407.012H1575.16C1572.2 394.775 1561.85 386.645 1544.12 386.645C1527.61 386.645 1516.28 396.007 1516.28 408.408C1516.28 420.234 1525.31 425.819 1536.64 428.2L1550.52 431.157C1559.06 432.964 1562.35 435.92 1562.35 441.094C1562.35 447.91 1556.11 452.016 1546.5 452.016C1537.55 452.016 1530.65 448.567 1528.02 441.012H1513.89C1516.85 454.645 1529.25 462.611 1546.5 462.611C1563.42 462.611 1575.65 454.07 1575.65 440.355C1575.65 429.35 1567.28 422.616 1554.46 419.988L1554.38 419.906ZM1713.54 424.587C1713.54 446.514 1697.85 462.529 1675.76 462.529C1653.67 462.529 1638.07 446.514 1638.07 424.587C1638.07 402.577 1653.67 386.645 1675.76 386.645C1697.85 386.645 1713.54 402.577 1713.54 424.587ZM1699.58 424.587C1699.58 408.983 1690.13 397.732 1675.76 397.732C1661.39 397.732 1652.03 408.983 1652.03 424.587C1652.03 440.191 1661.31 451.442 1675.76 451.442C1690.13 451.442 1699.58 440.191 1699.58 424.587ZM1818.99 431.075L1842.72 461.379H1827.04L1804.29 431.567H1794.43V461.379H1780.64V387.795H1812.17C1829.09 387.795 1840.01 395.514 1840.01 409.886C1840.01 422.205 1832.05 429.268 1819.07 431.075H1818.99ZM1811.76 421.138C1820.96 421.138 1826.13 416.703 1826.13 409.886C1826.13 403.07 1820.96 398.635 1811.76 398.635H1794.35V421.138H1811.76ZM1901.28 387.877V398.882H1928.46V461.379H1942.34V398.882H1969.52V387.877H1901.36H1901.28ZM2069.22 419.988L2055.02 417.031C2047.71 415.471 2044.26 412.35 2044.26 407.423C2044.26 401.345 2050.25 397.239 2059.04 397.239C2068.73 397.239 2073.99 401.51 2076.12 407.094H2090C2087.04 394.857 2076.7 386.727 2058.96 386.727C2042.45 386.727 2031.12 396.089 2031.12 408.572C2031.12 420.398 2040.15 425.983 2051.48 428.365L2065.36 431.321C2073.91 433.128 2077.19 436.084 2077.19 441.258C2077.19 448.075 2070.95 452.181 2061.34 452.181C2052.39 452.181 2045.49 448.732 2042.86 441.176H2028.74C2031.69 454.809 2044.01 462.775 2061.34 462.775C2078.26 462.775 2090.49 454.234 2090.49 440.519C2090.49 429.514 2082.12 422.78 2069.31 420.152L2069.22 419.988ZM229.704 81.6324C229.704 103.56 223.052 121.135 210.076 134.11C192.173 151.849 162.115 160.883 120.724 160.801C119.903 160.801 118.999 160.801 118.178 160.801H49.9321V234.631H0L0.0821251 0H113.579C194.965 0 229.704 24.4733 229.704 81.6324ZM178.786 81.3039C178.786 48.536 156.038 42.3766 113.908 42.2944H50.0142V118.507H115.222C160.965 118.507 178.786 108.077 178.786 81.3039ZM1090.54 0.0821533H851.144V43.1978H943.042V234.631H994.945V43.28H1090.54V0.0821533ZM1305.46 234.631H1353.34L1353.42 0.0821533H1305.54L1305.46 234.631ZM1797.47 168.767L1792.63 160.472L1657.45 0H1606.45L1606.37 234.549H1654.98V63.8934L1660.41 72.4343L1796.98 234.631H1845.93L1846.01 0.0821533H1797.47V168.767ZM685.662 234.714H631.46L608.136 182.81H482.567L458.258 234.631H404.959L518.948 0.0821533H573.48L685.58 234.714H685.662ZM589.74 141.83L546.46 46.0722L501.702 141.83H589.74ZM2328 234.714H2273.72L2250.39 182.81H2124.82L2100.51 234.631H2047.21L2161.12 0.0821533H2215.65L2327.84 234.714H2328ZM2232 141.83L2188.72 46.0722L2143.96 141.83H2232Z" fill="white"/>
</svg>
