<svg width="234" height="47" viewBox="0 0 234 47" fill="none" xmlns="http://www.w3.org/2000/svg">
<path d="M29.3752 38.8298H30.7564V46.1962H29.3752V42.9734H25.2562V46.1962H23.875V38.8298H25.2645V41.8635H29.3834V38.8298H29.3752ZM45.0205 42.5048C45.0205 44.6999 43.4503 46.3031 41.2387 46.3031C39.0271 46.3031 37.4651 44.6917 37.4651 42.5048C37.4651 40.3015 39.0271 38.7065 41.2387 38.7065C43.4503 38.7065 45.0205 40.3015 45.0205 42.5048ZM43.6229 42.5048C43.6229 40.9427 42.6774 39.8164 41.2387 39.8164C39.7999 39.8164 38.8709 40.9427 38.8627 42.5048C38.8627 44.0669 39.7917 45.1932 41.2387 45.1932C42.6774 45.1932 43.6229 44.0669 43.6229 42.5048ZM50.7509 38.8298V39.9315H53.4722V46.188H54.8616V39.9315H57.5829V38.8298H50.7591H50.7509ZM65.5741 45.0699V42.957H69.1833V41.8635H65.5741V39.9233H69.5615V38.8216H64.2176V46.188H69.5615V45.0699H65.5741ZM77.7747 45.0781V38.8298H76.3853V46.1962H81.7046V45.0781H77.7747ZM91.8745 42.0362L90.4522 41.7402C89.7205 41.584 89.3752 41.2716 89.3752 40.7783C89.3752 40.1699 89.9753 39.7588 90.855 39.7588C91.8334 39.7588 92.3513 40.1864 92.5651 40.7454H93.9545C93.6585 39.5204 92.6226 38.7065 90.8468 38.7065C89.1943 38.7065 88.0597 39.6437 88.0597 40.8852C88.0597 42.0691 88.9641 42.6281 90.0986 42.8665L91.4881 43.1625C92.3431 43.3434 92.672 43.6394 92.672 44.1573C92.672 44.8397 92.0471 45.2508 91.0852 45.2508C90.1891 45.2508 89.4985 44.9055 89.2354 44.1491H87.8213C88.1173 45.5138 89.3587 46.3113 91.0852 46.3113C92.7788 46.3113 94.0038 45.4563 94.0038 44.0833C94.0038 42.9816 93.1652 42.3075 91.8827 42.0444L91.8745 42.0362ZM110.414 40.7865C109.345 40.7865 108.498 41.4936 108.498 42.513C108.498 43.5243 109.353 44.2313 110.414 44.2313C111.483 44.2313 112.329 43.5243 112.338 42.513C112.338 41.4936 111.483 40.7865 110.414 40.7865ZM131.124 43.1543L133.5 46.188H131.929L129.652 43.2036H128.665V46.188H127.284V38.8216H130.441C132.135 38.8216 133.228 39.5862 133.228 41.0249C133.228 42.2582 132.431 42.9652 131.132 43.1461L131.124 43.1543ZM130.4 42.1595C131.321 42.1595 131.839 41.7155 131.839 41.0332C131.839 40.3508 131.321 39.9068 130.4 39.9068H128.657V42.1595H130.4ZM141.359 42.9652H144.968V41.8717H141.359V39.9315H145.347V38.8298H140.003V46.188H145.347V45.0699H141.359V42.957V42.9652ZM155.607 42.0362L154.185 41.7402C153.453 41.584 153.108 41.2716 153.108 40.7783C153.108 40.1617 153.708 39.7588 154.588 39.7588C155.558 39.7588 156.084 40.1864 156.298 40.7454H157.687C157.391 39.5204 156.355 38.7065 154.579 38.7065C152.927 38.7065 151.792 39.6437 151.792 40.8852C151.792 42.0691 152.697 42.6281 153.831 42.8665L155.221 43.1625C156.076 43.3434 156.404 43.6394 156.404 44.1573C156.404 44.8397 155.78 45.2508 154.818 45.2508C153.922 45.2508 153.231 44.9055 152.968 44.1491H151.554C151.85 45.5138 153.091 46.3113 154.818 46.3113C156.511 46.3113 157.736 45.4563 157.736 44.0833C157.736 42.9816 156.898 42.3075 155.615 42.0444L155.607 42.0362ZM171.54 42.5048C171.54 44.6999 169.97 46.3031 167.758 46.3031C165.547 46.3031 163.985 44.6999 163.985 42.5048C163.985 40.3015 165.547 38.7065 167.758 38.7065C169.97 38.7065 171.54 40.3015 171.54 42.5048ZM170.142 42.5048C170.142 40.9427 169.197 39.8164 167.758 39.8164C166.32 39.8164 165.382 40.9427 165.382 42.5048C165.382 44.0669 166.311 45.1932 167.758 45.1932C169.197 45.1932 170.142 44.0669 170.142 42.5048ZM182.096 43.1543L184.472 46.188H182.902L180.625 43.2036H179.638V46.188H178.257V38.8216H181.414C183.108 38.8216 184.201 39.5944 184.201 41.0332C184.201 42.2664 183.404 42.9734 182.105 43.1543H182.096ZM181.373 42.1595C182.294 42.1595 182.812 41.7155 182.812 41.0332C182.812 40.3508 182.294 39.9068 181.373 39.9068H179.63V42.1595H181.373ZM190.334 38.8298V39.9315H193.056V46.188H194.445V39.9315H197.166V38.8298H190.343H190.334ZM207.147 42.0444L205.725 41.7484C204.993 41.5922 204.648 41.2798 204.648 40.7865C204.648 40.1781 205.248 39.7671 206.128 39.7671C207.098 39.7671 207.624 40.1946 207.838 40.7536H209.227C208.931 39.5286 207.895 38.7147 206.119 38.7147C204.467 38.7147 203.332 39.652 203.332 40.9016C203.332 42.0855 204.237 42.6446 205.371 42.883L206.761 43.1789C207.616 43.3598 207.945 43.6558 207.945 44.1738C207.945 44.8561 207.32 45.2672 206.358 45.2672C205.462 45.2672 204.771 44.9219 204.508 44.1655H203.094C203.39 45.5303 204.623 46.3278 206.358 46.3278C208.051 46.3278 209.276 45.4727 209.276 44.0998C209.276 42.9981 208.438 42.3239 207.155 42.0608L207.147 42.0444ZM22.9953 8.1721C22.9953 10.3672 22.3294 12.1266 21.0304 13.4256C19.2381 15.2014 16.2291 16.1058 12.0855 16.0976C12.0033 16.0976 11.9129 16.0976 11.8306 16.0976H4.99863V23.4886H0L0.00822143 0H11.3702C19.5177 0 22.9953 2.44999 22.9953 8.1721ZM17.8981 8.13922C17.8981 4.85887 15.6207 4.24226 11.4031 4.23404H5.00685V11.8635H11.5347C16.114 11.8635 17.8981 10.8194 17.8981 8.13922ZM109.172 0.00822449H85.2069V4.32448H94.4067V23.4886H99.6026V4.3327H109.172V0.00822449ZM130.688 23.4886H135.481L135.489 0.00822449H130.696L130.688 23.4886ZM179.942 16.895L179.457 16.0647L165.925 0H160.819L160.811 23.4804H165.678V6.39628L166.221 7.2513L179.893 23.4886H184.793L184.801 0.00822449H179.942V16.895ZM68.6407 23.4968H63.2146L60.8797 18.3009H48.3091L45.8756 23.4886H40.5399L51.9512 0.00822449H57.4102L68.6325 23.4968H68.6407ZM59.0381 14.1984L54.7054 4.61222L50.2247 14.1984H59.0381ZM233.053 23.4968H227.618L225.284 18.3009H212.713L210.28 23.4886H204.944L216.347 0.00822449H221.806L233.036 23.4968H233.053ZM223.442 14.1984L219.109 4.61222L214.629 14.1984H223.442Z" fill="#53645C"/>
</svg>
