<svg width="25" height="25" viewBox="0 0 25 25" fill="none" xmlns="http://www.w3.org/2000/svg">
<mask id="mask0_610_47345" style="mask-type:alpha" maskUnits="userSpaceOnUse" x="0" y="0" width="25" height="25">
<rect x="0.46875" y="0.160156" width="24" height="24" fill="#D9D9D9"/>
</mask>
<g mask="url(#mask0_610_47345)">
<path d="M19.909 20.6602C18.0245 20.6602 16.1313 20.222 14.2292 19.3457C12.3274 18.4693 10.58 17.2332 8.987 15.6372C7.39417 14.041 6.15958 12.2935 5.28325 10.3947C4.40692 8.49599 3.96875 6.60441 3.96875 4.71991C3.96875 4.41707 4.06875 4.16474 4.26875 3.96291C4.46875 3.76107 4.71875 3.66016 5.01875 3.66016H8.28025C8.53275 3.66016 8.7555 3.74257 8.9485 3.90741C9.1415 4.07207 9.26425 4.27557 9.31675 4.51791L9.89 7.46016C9.92967 7.73316 9.92133 7.96774 9.865 8.16391C9.8085 8.36007 9.70717 8.52482 9.561 8.65816L7.2515 10.9064C7.62317 11.5871 8.04783 12.231 8.5255 12.8382C9.003 13.4452 9.52 14.0249 10.0765 14.5774C10.6252 15.1262 11.2085 15.6359 11.8265 16.1064C12.4445 16.5769 13.1118 17.0147 13.8285 17.4199L16.0725 15.1564C16.229 14.9936 16.4185 14.8794 16.641 14.8139C16.8633 14.7486 17.0944 14.7326 17.3343 14.7659L20.111 15.3314C20.3635 15.3981 20.5696 15.5269 20.7292 15.7179C20.8889 15.9089 20.9688 16.1256 20.9688 16.3679V19.6102C20.9688 19.9102 20.8678 20.1602 20.666 20.3602C20.4642 20.5602 20.2118 20.6602 19.909 20.6602ZM6.54175 9.48716L8.3265 7.77941C8.3585 7.75374 8.37933 7.71849 8.389 7.67366C8.39867 7.62882 8.39708 7.58716 8.38425 7.54866L7.9495 5.31391C7.93667 5.26274 7.91425 5.22432 7.88225 5.19866C7.85025 5.17299 7.80858 5.16016 7.75725 5.16016H5.61875C5.58025 5.16016 5.54817 5.17299 5.5225 5.19866C5.497 5.22432 5.48425 5.25641 5.48425 5.29491C5.53542 5.97824 5.64725 6.67241 5.81975 7.37741C5.99208 8.08257 6.23275 8.78582 6.54175 9.48716ZM15.2417 18.1294C15.9046 18.4384 16.5959 18.6747 17.3158 18.8382C18.0358 19.0015 18.7085 19.0986 19.334 19.1294C19.3725 19.1294 19.4046 19.1166 19.4303 19.0909C19.4559 19.0652 19.4688 19.0332 19.4688 18.9947V16.8909C19.4688 16.8396 19.4559 16.7979 19.4303 16.7659C19.4046 16.7339 19.3662 16.7115 19.315 16.6987L17.215 16.2717C17.1765 16.2588 17.1428 16.2572 17.114 16.2669C17.0852 16.2766 17.0547 16.2974 17.0225 16.3294L15.2417 18.1294Z" fill="white"/>
</g>
</svg>
