<svg width="25" height="25" viewBox="0 0 25 25" fill="none" xmlns="http://www.w3.org/2000/svg">
<mask id="mask0_9755_12389" style="mask-type:alpha" maskUnits="userSpaceOnUse" x="0" y="0" width="25" height="25">
<rect x="0.390625" y="0.5" width="24" height="24" fill="#D9D9D9"/>
</mask>
<g mask="url(#mask0_9755_12389)">
<path d="M12.3901 3.07422C13.1683 4.01383 13.8737 4.90951 14.5063 5.76125C15.1389 6.61299 15.7093 7.43826 16.2174 8.23707L21.9678 3.92713V12.4966C21.9678 13.8202 21.716 15.0645 21.2126 16.2296C20.7092 17.3949 20.0264 18.4086 19.1643 19.2707C18.3021 20.1329 17.2884 20.8157 16.1231 21.3191C14.958 21.8225 13.7137 22.0742 12.3901 22.0742C11.0666 22.0742 9.82223 21.8225 8.65712 21.3191C7.49184 20.8157 6.47813 20.1329 5.61597 19.2707C4.75382 18.4086 4.07103 17.3949 3.56762 16.2296C3.06421 15.0645 2.8125 13.8202 2.8125 12.4966V3.92713L8.56286 8.23707C9.07098 7.45506 9.64135 6.63399 10.274 5.77385C10.9066 4.91371 11.612 4.01383 12.3901 3.07422Z" fill="white"/>
</g>
</svg>
