<svg width="24" height="24" viewBox="0 0 24 24" fill="none" xmlns="http://www.w3.org/2000/svg">
<mask id="mask0_3492_64905" style="mask-type:alpha" maskUnits="userSpaceOnUse" x="0" y="0" width="24" height="24">
<rect width="24" height="24" fill="#D9D9D9"/>
</mask>
<g mask="url(#mask0_3492_64905)">
<path d="M5.30775 10.8173C4.80258 10.8173 4.375 10.6423 4.025 10.2923C3.675 9.94225 3.5 9.51467 3.5 9.0095V5.30775C3.5 4.80258 3.675 4.375 4.025 4.025C4.375 3.675 4.80258 3.5 5.30775 3.5H18.6923C19.1974 3.5 19.625 3.675 19.975 4.025C20.325 4.375 20.5 4.80258 20.5 5.30775V9.0095C20.5 9.51467 20.325 9.94225 19.975 10.2923C19.625 10.6423 19.1974 10.8173 18.6923 10.8173H5.30775ZM5.30775 9.31725H18.6923C18.7821 9.31725 18.8558 9.28842 18.9135 9.23075C18.9712 9.17308 19 9.09933 19 9.0095V5.30775C19 5.21792 18.9712 5.14417 18.9135 5.0865C18.8558 5.02883 18.7821 5 18.6923 5H5.30775C5.21792 5 5.14417 5.02883 5.0865 5.0865C5.02883 5.14417 5 5.21792 5 5.30775V9.0095C5 9.09933 5.02883 9.17308 5.0865 9.23075C5.14417 9.28842 5.21792 9.31725 5.30775 9.31725ZM5.30775 20.5C4.80258 20.5 4.375 20.325 4.025 19.975C3.675 19.625 3.5 19.1974 3.5 18.6923V15C3.5 14.4948 3.675 14.0673 4.025 13.7172C4.375 13.3672 4.80258 13.1923 5.30775 13.1923H18.6923C19.1974 13.1923 19.625 13.3672 19.975 13.7172C20.325 14.0673 20.5 14.4948 20.5 15V18.6923C20.5 19.1974 20.325 19.625 19.975 19.975C19.625 20.325 19.1974 20.5 18.6923 20.5H5.30775ZM5.30775 19H18.6923C18.7821 19 18.8558 18.9712 18.9135 18.9135C18.9712 18.8558 19 18.7821 19 18.6923V15C19 14.9102 18.9712 14.8364 18.9135 14.7788C18.8558 14.7211 18.7821 14.6923 18.6923 14.6923H5.30775C5.21792 14.6923 5.14417 14.7211 5.0865 14.7788C5.02883 14.8364 5 14.9102 5 15V18.6923C5 18.7821 5.02883 18.8558 5.0865 18.9135C5.14417 18.9712 5.21792 19 5.30775 19Z" fill="white"/>
</g>
</svg>
