<svg width="25" height="24" viewBox="0 0 25 24" fill="none" xmlns="http://www.w3.org/2000/svg">
<mask id="mask0_1685_65463" style="mask-type:alpha" maskUnits="userSpaceOnUse" x="0" y="0" width="25" height="24">
<rect x="0.612305" width="24" height="24" fill="#D9D9D9"/>
</mask>
<g mask="url(#mask0_1685_65463)">
<path d="M2.8623 19.6191V18.1691C3.31997 18.1434 3.71322 18.0556 4.04205 17.9056C4.37089 17.7556 4.7023 17.5979 5.0363 17.4326C5.37031 17.2671 5.73855 17.1183 6.14105 16.9863C6.54372 16.8543 7.03414 16.7883 7.6123 16.7883C8.20714 16.7883 8.70555 16.8592 9.10755 17.0008C9.50939 17.1425 9.89014 17.3008 10.2498 17.4758C10.6095 17.6508 10.9707 17.8133 11.3336 17.9633C11.6964 18.1133 12.1226 18.1883 12.6123 18.1883C13.102 18.1883 13.5282 18.1133 13.8911 17.9633C14.2539 17.8133 14.6151 17.6508 14.9748 17.4758C15.3345 17.3008 15.7194 17.1425 16.1296 17.0008C16.5399 16.8592 17.0341 16.7883 17.6123 16.7883C18.2071 16.7883 18.7017 16.8543 19.0961 16.9863C19.4902 17.1183 19.8543 17.2671 20.1883 17.4326C20.5223 17.5979 20.8562 17.7556 21.1901 17.9056C21.5241 18.0556 21.9148 18.1434 22.3623 18.1691V19.6191C21.8123 19.5997 21.3441 19.5151 20.9576 19.3651C20.5711 19.2151 20.2076 19.0574 19.8671 18.8921C19.5267 18.7267 19.1866 18.5764 18.8468 18.4411C18.5071 18.3059 18.0956 18.2383 17.6123 18.2383C17.1456 18.2383 16.7335 18.3092 16.3758 18.4508C16.0181 18.5925 15.6621 18.7508 15.3076 18.9258C14.9531 19.1008 14.5665 19.2633 14.1478 19.4133C13.7293 19.5633 13.2175 19.6383 12.6123 19.6383C12.0071 19.6383 11.4953 19.5633 11.0768 19.4133C10.6581 19.2633 10.2716 19.1008 9.91705 18.9258C9.56255 18.7508 9.21064 18.5925 8.8613 18.4508C8.51197 18.3092 8.09564 18.2383 7.6123 18.2383C7.14564 18.2383 6.7383 18.3059 6.3903 18.4411C6.04214 18.5764 5.69789 18.7267 5.35755 18.8921C5.01705 19.0574 4.65355 19.2151 4.26705 19.3651C3.88055 19.5151 3.4123 19.5997 2.8623 19.6191ZM2.8623 15.4768V14.0268C3.31997 14.0012 3.71322 13.9133 4.04205 13.7633C4.37089 13.6133 4.7023 13.4557 5.0363 13.2903C5.37031 13.1248 5.73855 12.9761 6.14105 12.8441C6.54372 12.7121 7.03414 12.6461 7.6123 12.6461C8.20714 12.6461 8.70555 12.7169 9.10755 12.8586C9.50939 13.0002 9.89014 13.1586 10.2498 13.3336C10.6095 13.5086 10.9707 13.6711 11.3336 13.8211C11.6964 13.9711 12.1226 14.0461 12.6123 14.0461C13.102 14.0461 13.5282 13.9711 13.8911 13.8211C14.2539 13.6711 14.6151 13.5086 14.9748 13.3336C15.3345 13.1586 15.7194 13.0002 16.1296 12.8586C16.5399 12.7169 17.0341 12.6461 17.6123 12.6461C18.2071 12.6461 18.7017 12.7121 19.0961 12.8441C19.4902 12.9761 19.8543 13.1248 20.1883 13.2903C20.5223 13.4557 20.8562 13.6133 21.1901 13.7633C21.5241 13.9133 21.9148 14.0012 22.3623 14.0268V15.4768C21.8123 15.4575 21.3441 15.3728 20.9576 15.2228C20.5711 15.0728 20.2076 14.9152 19.8671 14.7498C19.5267 14.5845 19.1866 14.4342 18.8468 14.2988C18.5071 14.1635 18.0956 14.0958 17.6123 14.0958C17.1353 14.0958 16.718 14.1667 16.3603 14.3083C16.0026 14.45 15.6466 14.6083 15.2921 14.7833C14.9376 14.9583 14.5536 15.1208 14.1403 15.2708C13.7268 15.4208 13.2175 15.4958 12.6123 15.4958C12.0071 15.4958 11.4953 15.4208 11.0768 15.2708C10.6581 15.1208 10.2716 14.9583 9.91705 14.7833C9.56255 14.6083 9.21064 14.45 8.8613 14.3083C8.51197 14.1667 8.09564 14.0958 7.6123 14.0958C7.14564 14.0958 6.7383 14.1635 6.3903 14.2988C6.04214 14.4342 5.69789 14.5845 5.35755 14.7498C5.01705 14.9152 4.65355 15.0728 4.26705 15.2228C3.88055 15.3728 3.4123 15.4575 2.8623 15.4768ZM2.8623 11.3343V9.88458C3.31997 9.85891 3.71322 9.77108 4.04205 9.62108C4.37089 9.47108 4.7023 9.31333 5.0363 9.14783C5.37031 8.98249 5.73855 8.83383 6.14105 8.70183C6.54372 8.56983 7.03414 8.50383 7.6123 8.50383C8.20714 8.50383 8.70555 8.57466 9.10755 8.71633C9.50939 8.85799 9.89014 9.01633 10.2498 9.19133C10.6095 9.36633 10.9707 9.52883 11.3336 9.67883C11.6964 9.82883 12.1226 9.90383 12.6123 9.90383C13.102 9.90383 13.5282 9.82883 13.8911 9.67883C14.2539 9.52883 14.6151 9.36633 14.9748 9.19133C15.3345 9.01633 15.7194 8.85799 16.1296 8.71633C16.5399 8.57466 17.0341 8.50383 17.6123 8.50383C18.2071 8.50383 18.7017 8.56983 19.0961 8.70183C19.4902 8.83383 19.8543 8.98249 20.1883 9.14783C20.5223 9.31333 20.8562 9.47108 21.1901 9.62108C21.5241 9.77108 21.9148 9.85891 22.3623 9.88458V11.3343C21.8123 11.3152 21.3441 11.2306 20.9576 11.0806C20.5711 10.9306 20.2076 10.7729 19.8671 10.6076C19.5267 10.4421 19.1866 10.2917 18.8468 10.1566C18.5071 10.0212 18.0956 9.95358 17.6123 9.95358C17.1456 9.95358 16.7335 10.0244 16.3758 10.1661C16.0181 10.3077 15.6621 10.4661 15.3076 10.6411C14.9531 10.8161 14.5665 10.9786 14.1478 11.1286C13.7293 11.2786 13.2175 11.3536 12.6123 11.3536C12.0071 11.3536 11.4953 11.2786 11.0768 11.1286C10.6581 10.9786 10.2716 10.8161 9.91705 10.6411C9.56255 10.4661 9.21064 10.3077 8.8613 10.1661C8.51197 10.0244 8.09564 9.95358 7.6123 9.95358C7.14564 9.95358 6.7383 10.0212 6.3903 10.1566C6.04214 10.2917 5.69789 10.4421 5.35755 10.6076C5.01705 10.7729 4.65355 10.9306 4.26705 11.0806C3.88055 11.2306 3.4123 11.3152 2.8623 11.3343ZM2.8623 7.19208V5.74208C3.31997 5.71658 3.71322 5.62883 4.04205 5.47883C4.37089 5.32883 4.7023 5.17108 5.0363 5.00558C5.37031 4.84024 5.73855 4.69158 6.14105 4.55958C6.54372 4.42741 7.03414 4.36133 7.6123 4.36133C8.20714 4.36133 8.70555 4.43216 9.10755 4.57383C9.50939 4.71549 9.89014 4.87383 10.2498 5.04883C10.6095 5.22383 10.9707 5.38633 11.3336 5.53633C11.6964 5.68633 12.1226 5.76133 12.6123 5.76133C13.102 5.76133 13.5282 5.68633 13.8911 5.53633C14.2539 5.38633 14.6151 5.22383 14.9748 5.04883C15.3345 4.87383 15.7194 4.71549 16.1296 4.57383C16.5399 4.43216 17.0341 4.36133 17.6123 4.36133C18.2071 4.36133 18.7017 4.42741 19.0961 4.55958C19.4902 4.69158 19.8543 4.84024 20.1883 5.00558C20.5223 5.17108 20.8562 5.32883 21.1901 5.47883C21.5241 5.62883 21.9148 5.71658 22.3623 5.74208V7.19208C21.8123 7.17291 21.3441 7.08833 20.9576 6.93833C20.5711 6.78833 20.2076 6.63066 19.8671 6.46533C19.5267 6.29983 19.1866 6.14949 18.8468 6.01433C18.5071 5.87899 18.0956 5.81133 17.6123 5.81133C17.1456 5.81133 16.7335 5.88216 16.3758 6.02383C16.0181 6.16549 15.6621 6.32383 15.3076 6.49883C14.9531 6.67383 14.5665 6.83633 14.1478 6.98633C13.7293 7.13633 13.2175 7.21133 12.6123 7.21133C12.0071 7.21133 11.4953 7.13633 11.0768 6.98633C10.6581 6.83633 10.2716 6.67383 9.91705 6.49883C9.56255 6.32383 9.21064 6.16549 8.8613 6.02383C8.51197 5.88216 8.09564 5.81133 7.6123 5.81133C7.14564 5.81133 6.7383 5.87899 6.3903 6.01433C6.04214 6.14949 5.69789 6.29983 5.35755 6.46533C5.01705 6.63066 4.65355 6.78833 4.26705 6.93833C3.88055 7.08833 3.4123 7.17291 2.8623 7.19208Z" fill="#1C1B1F"/>
</g>
</svg>
