<svg width="25" height="25" viewBox="0 0 25 25" fill="none" xmlns="http://www.w3.org/2000/svg">
<path fill-rule="evenodd" clip-rule="evenodd" d="M2.74219 10.1887C2.74219 11.9914 3.725 13.6383 5.24389 14.7289C5.37791 14.8179 5.44492 14.9514 5.44492 15.1295C5.44492 15.174 5.42258 15.2408 5.42258 15.2853C5.3109 15.7304 5.10987 16.4648 5.08753 16.4871C5.06519 16.5538 5.04286 16.5984 5.04286 16.6651C5.04286 16.7987 5.15454 16.9099 5.28856 16.9099C5.33323 16.9099 5.37791 16.8877 5.42258 16.8654L7.00848 15.9529C7.12016 15.8862 7.25418 15.8417 7.3882 15.8417C7.45521 15.8417 7.54456 15.8417 7.61157 15.8639C8.34867 16.0865 9.15279 16.1978 9.97924 16.1978C13.9775 16.1978 17.2163 13.5048 17.2163 10.1887C17.2163 6.87262 13.9775 4.17969 9.97924 4.17969C5.98099 4.17969 2.74219 6.87262 2.74219 10.1887Z" fill="url(#paint0_linear_3491_89205)"/>
<path fill-rule="evenodd" clip-rule="evenodd" d="M16.7273 19.7339C17.4181 19.7339 18.0865 19.6442 18.6882 19.4648C18.7327 19.4424 18.7996 19.4424 18.8664 19.4424C18.9778 19.4424 19.0893 19.4872 19.1784 19.5321L20.4931 20.2944C20.5376 20.3169 20.5599 20.3393 20.6045 20.3393C20.7159 20.3393 20.805 20.2496 20.805 20.1375C20.805 20.0926 20.7828 20.0478 20.7828 19.9805C20.7828 19.9581 20.6045 19.3527 20.5154 18.9715C20.4931 18.9266 20.4931 18.8818 20.4931 18.8369C20.4931 18.7024 20.5599 18.5903 20.6713 18.5006C21.9415 17.5813 22.7436 16.2135 22.7436 14.6887C22.7436 11.9083 20.0474 9.64355 16.7273 9.64355C13.4072 9.64355 10.7109 11.8858 10.7109 14.6887C10.7109 17.4692 13.4072 19.7339 16.7273 19.7339Z" fill="url(#paint1_linear_3491_89205)"/>
<path fill-rule="evenodd" clip-rule="evenodd" d="M8.50075 8.2494C8.50075 8.7685 8.08979 9.17946 7.57069 9.17946C7.05158 9.17946 6.64062 8.7685 6.64062 8.2494C6.64062 7.73029 7.05158 7.31934 7.57069 7.31934C8.08979 7.31934 8.50075 7.73029 8.50075 8.2494Z" fill="#187E28"/>
<path fill-rule="evenodd" clip-rule="evenodd" d="M13.3211 8.2494C13.3211 8.7685 12.9101 9.17946 12.391 9.17946C11.8719 9.17946 11.4609 8.7685 11.4609 8.2494C11.4609 7.73029 11.8719 7.31934 12.391 7.31934C12.9101 7.31934 13.3211 7.73029 13.3211 8.2494Z" fill="#187E28"/>
<path fill-rule="evenodd" clip-rule="evenodd" d="M17.9688 13.1322C17.9688 13.5843 18.3304 13.946 18.7826 13.946C19.2347 13.946 19.5964 13.5843 19.5964 13.1322C19.5964 12.6801 19.2347 12.3184 18.7826 12.3184C18.3304 12.3184 17.9688 12.6801 17.9688 13.1322Z" fill="#858C8C"/>
<path fill-rule="evenodd" clip-rule="evenodd" d="M13.9609 13.1322C13.9609 13.5843 14.3226 13.946 14.7747 13.946C15.2269 13.946 15.5885 13.5843 15.5885 13.1322C15.5885 12.6801 15.2269 12.3184 14.7747 12.3184C14.3226 12.3184 13.9609 12.6801 13.9609 13.1322Z" fill="#858C8C"/>
<defs>
<linearGradient id="paint0_linear_3491_89205" x1="16.7694" y1="16.1653" x2="16.7694" y2="4.23526" gradientUnits="userSpaceOnUse">
<stop stop-color="#78D431"/>
<stop offset="1" stop-color="#9EEE69"/>
<stop offset="1" stop-color="#9EEE69"/>
</linearGradient>
<linearGradient id="paint1_linear_3491_89205" x1="22.3676" y1="19.6478" x2="22.3676" y2="9.6397" gradientUnits="userSpaceOnUse">
<stop stop-color="#E4E6E6"/>
<stop offset="1" stop-color="#F5F5FF"/>
</linearGradient>
</defs>
</svg>
