<svg width="32" height="32" viewBox="0 0 32 32" fill="none" xmlns="http://www.w3.org/2000/svg">
<path fill-rule="evenodd" clip-rule="evenodd" d="M24.5116 18.494C23.8658 18.494 23.3492 17.9774 23.3492 17.3316C23.3492 16.6858 23.8658 16.1692 24.5116 16.1692C25.1574 16.1692 25.674 16.6858 25.674 17.3316C25.674 17.9451 25.1574 18.494 24.5116 18.494M18.7823 18.494C18.1365 18.494 17.6199 17.9774 17.6199 17.3316C17.6199 16.6858 18.1365 16.1692 18.7823 16.1692C19.4281 16.1692 19.9447 16.6858 19.9447 17.3316C19.9447 17.9451 19.4281 18.494 18.7823 18.494M27.2838 25.0184C29.096 23.7141 30.2405 21.7734 30.2405 19.6419C30.2405 15.697 26.4254 12.5156 21.6884 12.5156C16.9513 12.5156 13.1362 15.697 13.1362 19.6419C13.1362 23.5868 16.9513 26.7682 21.6884 26.7682C22.6739 26.7682 23.5959 26.6409 24.4861 26.3864C24.5497 26.3546 24.6451 26.3546 24.7404 26.3546C24.8994 26.3546 25.0584 26.4183 25.1855 26.4819L27.0613 27.5635C27.1249 27.5954 27.1567 27.6272 27.2202 27.6272C27.3792 27.6272 27.5064 27.4999 27.5064 27.3409C27.5064 27.2772 27.4746 27.2136 27.4746 27.1182C27.4746 27.0863 27.2202 26.2274 27.0931 25.6865C27.0613 25.6229 27.0613 25.5593 27.0613 25.4957C27.0295 25.273 27.1249 25.1139 27.2838 25.0184" fill="#9b9b9b" fill-opacity="0.7"/>
<path fill-rule="evenodd" clip-rule="evenodd" d="M15.3779 11.7647C14.6364 11.7647 14.0494 11.1777 14.0494 10.4362C14.0494 9.69473 14.6364 9.10772 15.3779 9.10772C16.1194 9.10772 16.7064 9.69473 16.7064 10.4362C16.7064 11.1468 16.1194 11.7647 15.3779 11.7647M8.56957 11.7647C7.82809 11.7647 7.24108 11.1777 7.24108 10.4362C7.24108 9.69473 7.82809 9.10772 8.56957 9.10772C9.31105 9.10772 9.89805 9.69473 9.89805 10.4362C9.89805 11.1468 9.31105 11.7647 8.56957 11.7647M12.0532 4.625C6.38118 4.625 1.76074 8.43566 1.76074 13.1672C1.76074 15.7394 3.13094 18.0576 5.32963 19.6136C5.48895 19.7406 5.61641 19.9312 5.61641 20.1852C5.61641 20.2487 5.58455 20.344 5.58455 20.4075C5.42522 21.0426 5.13844 22.0905 5.10657 22.1223C5.07471 22.2176 5.04284 22.2811 5.04284 22.3763C5.04284 22.5669 5.20217 22.7256 5.39336 22.7256C5.45709 22.7256 5.52082 22.6939 5.58455 22.6621L7.84697 21.3602C8.00629 21.2649 8.19748 21.2014 8.38867 21.2014C8.48427 21.2014 8.57986 21.2014 8.67546 21.2331C9.72701 21.5189 10.8741 21.7095 12.0213 21.7095C12.2125 21.7095 12.4037 21.7095 12.5949 21.7095C12.3718 21.0426 12.2443 20.344 12.2443 19.6136C12.2443 15.3266 16.4505 11.8335 21.6127 11.8335C21.8039 11.8335 21.9951 11.8335 22.1862 11.8335C21.4533 7.73704 17.1834 4.625 12.0532 4.625" fill="#9b9b9b" />
</svg>
