<svg width="25" height="24" viewBox="0 0 25 24" fill="none" xmlns="http://www.w3.org/2000/svg">
<mask id="mask0_9640_84499" style="mask-type:alpha" maskUnits="userSpaceOnUse" x="0" y="0" width="25" height="24">
<rect x="0.148438" width="24" height="24" fill="#D9D9D9"/>
</mask>
<g mask="url(#mask0_9640_84499)">
<path d="M3.64844 20.3398L4.84339 15.9744C4.10602 14.6965 3.71856 13.248 3.71927 11.7626C3.7214 7.11879 7.50035 3.33984 12.1435 3.33984C14.3967 3.34055 16.5117 4.21818 18.1027 5.8105C19.6929 7.40283 20.5684 9.51933 20.5677 11.7704C20.5655 16.4149 16.7866 20.1939 12.1435 20.1939C10.7339 20.1932 9.34484 19.8397 8.11447 19.1682L3.64844 20.3398ZM8.3213 17.6432C9.50847 18.348 10.6418 18.7701 12.1406 18.7709C15.9996 18.7709 19.1432 15.6301 19.1453 11.769C19.1467 7.90008 16.018 4.76359 12.1463 4.76217C8.28447 4.76217 5.14302 7.90292 5.1416 11.7633C5.14089 13.3394 5.60272 14.5194 6.37835 15.7541L5.67072 18.3381L8.3213 17.6432ZM16.3871 13.7729C16.3347 13.685 16.1944 13.6326 15.9833 13.5271C15.773 13.4215 14.7381 12.9122 14.5447 12.8421C14.352 12.772 14.2118 12.7366 14.0708 12.9477C13.9306 13.158 13.5268 13.6326 13.4043 13.7729C13.2817 13.9131 13.1585 13.9308 12.9481 13.8253C12.7378 13.7197 12.0592 13.498 11.2552 12.7805C10.6298 12.2223 10.2069 11.5331 10.0843 11.322C9.9618 11.1117 10.0716 10.9976 10.1764 10.8928C10.2713 10.7986 10.3868 10.647 10.4923 10.5237C10.5993 10.4019 10.634 10.3141 10.7048 10.1731C10.775 10.0329 10.7403 9.90962 10.6871 9.80408C10.634 9.69925 10.2133 8.66296 10.0383 8.2415C9.86688 7.83138 9.69334 7.88663 9.56442 7.88025L9.16068 7.87317C9.02043 7.87317 8.79234 7.92558 8.59968 8.13667C8.40701 8.34775 7.86301 8.85633 7.86301 9.89262C7.86301 10.9289 8.61738 11.9298 8.72222 12.07C8.82776 12.2103 10.2062 14.3367 12.3177 15.2483C12.8199 15.4651 13.2123 15.5947 13.5176 15.6917C14.022 15.8518 14.481 15.8291 14.8436 15.7753C15.2481 15.7151 16.0889 15.266 16.2645 14.7744C16.4402 14.2822 16.4402 13.8607 16.3871 13.7729Z" fill="#25D366"/>
</g>
</svg>
