<svg width="24" height="24" viewBox="0 0 24 24" fill="none" xmlns="http://www.w3.org/2000/svg">
<mask id="mask0_8337_3607" style="mask-type:alpha" maskUnits="userSpaceOnUse" x="0" y="0" width="24" height="24">
<rect x="24" y="24" width="24" height="24" transform="rotate(180 24 24)" fill="#D9D9D9"/>
</mask>
<g mask="url(#mask0_8337_3607)">
<path d="M16.1516 10.9995L13.3016 8.1495C13.1016 7.9495 13.0057 7.71617 13.0141 7.4495C13.0224 7.18283 13.1182 6.9495 13.3016 6.7495C13.5016 6.5495 13.7391 6.44533 14.0141 6.437C14.2891 6.42867 14.5266 6.5245 14.7266 6.7245L19.3016 11.2995C19.5016 11.4995 19.6016 11.7328 19.6016 11.9995C19.6016 12.2662 19.5016 12.4995 19.3016 12.6995L14.7266 17.2745C14.5266 17.4745 14.2891 17.5703 14.0141 17.562C13.7391 17.5537 13.5016 17.4495 13.3016 17.2495C13.1182 17.0495 13.0224 16.8162 13.0141 16.5495C13.0057 16.2828 13.1016 16.0495 13.3016 15.8495L16.1516 12.9995H5.00156C4.71823 12.9995 4.48073 12.9037 4.28906 12.712C4.0974 12.5203 4.00156 12.2828 4.00156 11.9995C4.00156 11.7162 4.0974 11.4787 4.28906 11.287C4.48073 11.0953 4.71823 10.9995 5.00156 10.9995H16.1516Z" fill="white"/>
</g>
</svg>
