<svg width="284" height="57" viewBox="0 0 284 57" fill="none" xmlns="http://www.w3.org/2000/svg">
<path d="M103.63 0.0100021H132.78V5.28H121.14V28.58H114.82V5.28H103.63V0.0100021ZM269.81 0.0100021H263.17L249.3 28.57H255.79L258.75 22.25H274.04L276.88 28.58H283.49L269.83 0.0100021H269.81ZM261.06 17.27L266.51 5.61L271.78 17.27H261.06ZM218.81 28.58L202.18 8.83L201.52 7.79V28.57H195.6V0H201.82L218.28 19.54L218.87 20.55V0.0100021H224.79V28.58H218.82H218.81ZM13.83 0.0100021H0.0100002L0 28.57H6.08V19.58H14.39C14.49 19.58 14.6 19.58 14.7 19.58C19.74 19.58 23.39 18.49 25.58 16.33C27.16 14.76 27.97 12.61 27.97 9.93999C27.97 2.97999 23.75 0.0100021 13.83 0.0100021ZM14.02 14.44H6.08V5.15H13.86C18.99 5.15 21.76 5.91 21.76 9.9C21.76 13.17 19.59 14.44 14.02 14.44ZM63.2 0.0100021L49.32 28.57H55.81L58.77 22.25H74.06L76.9 28.58H83.5L69.85 0.0100021H63.21H63.2ZM61.09 17.27L66.54 5.61L71.81 17.27H61.09ZM164.79 28.58H158.96L158.97 0.0100021H164.8L164.79 28.58ZM64.33 53.62C64.33 55.3 62.84 56.33 60.78 56.33C58.72 56.33 57.17 55.37 56.81 53.7H58.53C58.85 54.62 59.7 55.04 60.78 55.04C61.95 55.04 62.71 54.54 62.71 53.71C62.71 53.08 62.3 52.72 61.27 52.5L59.59 52.13C58.21 51.84 57.11 51.17 57.11 49.72C57.11 48.2 58.49 47.06 60.5 47.06C62.66 47.06 63.92 48.05 64.28 49.54H62.6C62.34 48.87 61.71 48.34 60.52 48.34C59.45 48.34 58.72 48.84 58.72 49.58C58.72 50.18 59.14 50.56 60.03 50.75L61.76 51.11C63.32 51.43 64.34 52.25 64.34 53.59L64.33 53.62ZM73.74 47.23L69.92 56.19H71.62L72.64 53.71H76.45L77.47 56.19H79.19L75.37 47.23H73.75H73.74ZM73.18 52.39L74.54 49.08L75.9 52.39H73.18ZM91.86 47.23H93.48V56.19H92.18L87.09 49.67V56.19H85.47V47.23H87.06L91.86 53.45V47.23ZM106.79 47.23H108.57L104.96 52.61V56.18H103.29V52.61L99.69 47.23H101.52L104.16 51.24L106.79 47.23ZM116.77 47.23L112.95 56.19H114.65L115.67 53.71H119.48L120.5 56.19H122.22L118.39 47.23H116.77ZM116.21 52.39L117.57 49.08L118.93 52.39H116.21ZM165.51 51.71C165.51 53.58 166.56 54.96 168.33 54.96C169.66 54.96 170.34 54.32 170.73 53.36H172.38C172.01 55.17 170.57 56.34 168.33 56.34C165.77 56.34 163.81 54.47 163.81 51.72C163.81 48.97 165.77 47.09 168.33 47.09C170.58 47.09 172.01 48.26 172.38 50.05H170.73C170.34 49.1 169.66 48.46 168.33 48.46C166.58 48.46 165.51 49.83 165.51 51.71ZM185.58 47.23H187.27V56.19H185.58V52.26H180.57V56.19H178.88V47.23H180.57V50.92H185.58V47.23ZM194.33 47.23H196.02V56.19H194.33V47.23ZM209.47 47.23H211.09V56.19H209.79L204.7 49.67V56.19H203.08V47.23H204.67L209.47 53.45V47.23ZM221.21 47.23L217.39 56.19H219.09L220.11 53.71H223.92L224.94 56.19H226.66L222.84 47.23H221.22H221.21ZM220.64 52.39L222 49.08L223.36 52.39H220.64ZM145.15 51.73C145.15 52.99 144.07 53.87 142.74 53.86C141.41 53.86 140.34 52.97 140.35 51.71C140.35 50.44 141.43 49.55 142.76 49.56C144.09 49.56 145.16 50.45 145.15 51.73Z" fill="white"/>
</svg>
