<svg width="284" height="57" viewBox="0 0 284 57" fill="none" xmlns="http://www.w3.org/2000/svg">
<path d="M103.63 0H132.78V5.27H121.14V28.57H114.82V5.27H103.63V0ZM269.81 0.0100021H263.17L249.3 28.57H255.79L258.75 22.25H274.04L276.88 28.58H283.49L269.83 0.0100021H269.81ZM261.06 17.27L266.51 5.61L271.78 17.27H261.06ZM218.81 28.58L202.18 8.83L201.52 7.79V28.57H195.6V0H201.82L218.28 19.54L218.87 20.55V0.0100021H224.79V28.58H218.82H218.81ZM13.83 0.0100021H0.0100002L0 28.57H6.08V19.58H14.39C14.49 19.58 14.6 19.58 14.7 19.58C19.74 19.58 23.39 18.49 25.58 16.33C27.16 14.76 27.97 12.61 27.97 9.93999C27.97 2.97999 23.75 0.0100021 13.83 0.0100021ZM14.02 14.44H6.08V5.15H13.86C18.99 5.15 21.76 5.91 21.76 9.9C21.76 13.17 19.59 14.44 14.02 14.44ZM63.2 0L49.32 28.56H55.81L58.77 22.24H74.06L76.9 28.57H83.5L69.85 0H63.21H63.2ZM61.09 17.27L66.54 5.61L71.81 17.27H61.09ZM164.79 28.57H158.96L158.97 0H164.8L164.79 28.57Z" fill="white"/>
<path d="M99.9609 48.5822V47.2422H108.171V48.5822H104.901V56.1922H103.231V48.5822H99.9609Z" fill="white"/>
<path d="M116.381 47.2422V56.1922H114.711V47.2422H116.381Z" fill="white"/>
<path d="M126.548 47.2422H128.148L131.928 56.1922H130.228L129.218 53.7122H125.448L124.438 56.1922H122.758L126.548 47.2422ZM127.338 49.0922L125.988 52.4022H128.688L127.338 49.0922Z" fill="white"/>
<path d="M146.24 47.2422V56.1922H144.96L139.92 49.6722V56.1922H138.32V47.2422H139.89L144.64 53.4522V47.2422H146.24Z" fill="white"/>
<path d="M152.555 53.5822H154.285C154.405 54.4922 154.925 54.9522 155.855 54.9522C156.965 54.9522 157.525 54.3322 157.525 53.1022V47.2422H159.195V53.1022C159.195 54.1522 158.905 54.9522 158.315 55.5122C157.725 56.0622 156.915 56.3422 155.895 56.3422C154.875 56.3422 154.085 56.0922 153.525 55.5922C152.955 55.0922 152.635 54.4222 152.565 53.5922L152.555 53.5822Z" fill="white"/>
<path d="M167.818 47.2422V56.1922H166.148V47.2422H167.818Z" fill="white"/>
<path d="M182.889 47.2422V56.1922H181.609L176.569 49.6722V56.1922H174.969V47.2422H176.539L181.289 53.4522V47.2422H182.889Z" fill="white"/>
</svg>
