<svg width="233" height="46" viewBox="0 0 233 46" fill="none" xmlns="http://www.w3.org/2000/svg">
<g clip-path="url(#clip0_710_103)">
<path d="M135.489 0H130.696V23.4886H135.489V0Z" fill="white"/>
<path d="M179.942 16.895L179.457 16.0647L165.925 0H160.819L160.811 23.4886H165.678V6.40449L166.229 7.25952L179.901 23.4968H184.801L184.809 0.00822319H179.942V16.895Z" fill="white"/>
<path d="M221.822 0.00823975H216.363L204.96 23.4886H210.296L212.729 18.2927H225.3L227.635 23.4969H233.069L221.839 0.00823975H221.822ZM214.629 14.1902L219.109 4.60402L223.442 14.1902H214.629Z" fill="white"/>
<path d="M85.1987 4.3327H94.4067L94.3985 23.4886L99.5945 23.4968L99.6027 4.3327L109.172 4.34092V0.00822319L85.207 0L85.1987 4.3327Z" fill="white"/>
<path d="M51.9594 0L40.5481 23.4804H45.8838L48.3173 18.2845H60.8879L63.2228 23.4886H68.6489L57.4267 0H51.9677H51.9594ZM50.2247 14.1902L54.7054 4.60401L59.0381 14.1902H50.2247Z" fill="white"/>
<path d="M11.3702 0.00823975H0.00822143L0 23.4886H4.99863V16.0976H11.8306C11.9129 16.0976 12.0033 16.0976 12.0855 16.0976C16.2291 16.0976 19.2299 15.2014 21.0304 13.4256C22.3294 12.1348 22.9953 10.3672 22.9953 8.17212C22.9953 2.45 19.5259 0.00823975 11.3702 0.00823975ZM11.5347 11.8635H5.00685V4.22583H11.4031C15.6207 4.22583 17.8981 4.85066 17.8981 8.13101C17.8981 10.8194 16.114 11.8635 11.5347 11.8635Z" fill="white"/>
<path d="M93.2228 38.7065C91.0359 38.7065 89.4902 40.3014 89.4902 42.5048C89.4902 44.7081 91.0359 46.3031 93.2228 46.3031C95.4097 46.3031 96.9635 44.6999 96.9635 42.5048C96.9635 40.3097 95.4097 38.7065 93.2228 38.7065ZM93.2228 45.1932C91.8005 45.1932 90.8797 44.0669 90.8797 42.5048C90.8797 40.9427 91.8005 39.8164 93.2228 39.8164C94.6451 39.8164 95.5823 40.9427 95.5823 42.5048C95.5823 44.0669 94.6451 45.1932 93.2228 45.1932Z" fill="white"/>
<path d="M105.801 42.0362L104.387 41.732C103.664 41.5758 103.319 41.2634 103.319 40.7701C103.319 40.1617 103.911 39.7506 104.782 39.7506C105.744 39.7506 106.262 40.1864 106.467 40.7372H107.84C107.553 39.5122 106.525 38.6983 104.766 38.6983C103.129 38.6983 102.011 39.6355 102.011 40.8852C102.011 42.1349 102.908 42.6282 104.026 42.8666L105.399 43.1708C106.245 43.3516 106.574 43.6476 106.574 44.1656C106.574 44.8479 105.958 45.259 105.004 45.259C104.124 45.259 103.434 44.9137 103.171 44.1573H101.773C102.061 45.5221 103.286 46.3114 105.004 46.3114C106.722 46.3114 107.89 45.4563 107.89 44.0833C107.89 42.9817 107.059 42.3075 105.793 42.0444L105.801 42.0362Z" fill="white"/>
<path d="M115.692 38.8216L112.576 46.188H113.957L114.788 44.1491H117.887L118.718 46.188H120.115L116.999 38.8216H115.684H115.692ZM115.232 43.0721L116.342 40.3508L117.451 43.0721H115.24H115.232Z" fill="white"/>
<path d="M131.831 38.8216H130.104L126.741 42.3486V38.8216H125.377V46.188H126.741V43.8942L127.572 43.031L130.236 46.188H131.954L128.567 42.1677L131.831 38.8216Z" fill="white"/>
<path d="M139.616 38.8216L136.5 46.188H137.882L138.712 44.1491H141.812L142.642 46.188H144.04L140.924 38.8216H139.608H139.616ZM139.148 43.0721L140.258 40.3508L141.368 43.0721H139.156H139.148Z" fill="white"/>
</g>
<defs>
<clipPath id="clip0_710_103">
<rect width="233" height="46" fill="white"/>
</clipPath>
</defs>
</svg>
