<svg width="2348" height="464" viewBox="0 0 2348 464" fill="none" xmlns="http://www.w3.org/2000/svg">
<path d="M1357.19 0H1309.26V234.886H1357.19V0Z" fill="white"/>
<path d="M2220.53 0.078125H2165.94L2051.9 234.882H2105.26L2129.6 182.923H2255.3L2278.65 234.964H2332.99L2220.69 0.078125H2220.53ZM2148.67 141.898L2193.48 46.036L2236.8 141.898H2148.67Z" fill="white"/>
<path d="M854.375 43.327H946.373L946.291 234.886L998.25 234.968L998.332 43.327L1094.03 43.4092V0.0822319L854.375 0V43.327Z" fill="white"/>
<path d="M576.565 0H521.975L407.861 234.804H461.218L485.554 182.845H611.259L634.608 234.886H688.87L576.647 0H576.565ZM504.628 141.902L549.434 46.0401L592.761 141.902H504.628Z" fill="white"/>
<path d="M116.007 0.078125H2.3869L2.30469 234.882H52.291V160.972H120.611C121.433 160.972 122.338 160.972 123.16 160.972C164.596 160.972 194.604 152.01 212.609 134.252C225.599 121.344 232.258 103.668 232.258 81.7169C232.258 24.4958 197.564 0.078125 116.007 0.078125ZM117.651 118.631H52.3732V42.254H116.336C158.512 42.254 181.285 48.5023 181.285 81.3058C181.285 108.19 163.445 118.631 117.651 118.631Z" fill="white"/>
<path d="M1850.39 0.0822319H1801.81L1801.72 168.95L1796.87 160.647L1661.55 0H1610.57L1610.41 234.886H1659.08L1659.16 64.0449L1664.59 72.5952L1801.31 234.968H1850.31L1850.39 0.0822319Z" fill="white"/>
<path d="M40.3672 444.884L15.7029 388.32H0V461.902H13.0721V410.765L35.3521 461.902H45.0534L66.8402 410.765V461.902H79.9945V388.32H64.7027L40.3672 444.884Z" fill="white"/>
<path d="M163.61 388.32L132.451 461.984H146.263L154.567 441.595H185.562L193.865 461.984H207.842L176.682 388.32H163.528H163.61ZM159.006 430.743L170.105 403.53L181.204 430.743H159.089H159.006Z" fill="white"/>
<path d="M274.107 388.32H260.459V461.902H312.994V450.803H274.107V388.32Z" fill="white"/>
<path d="M395.117 388.32H367.822V461.984H395.117C418.96 461.984 434.416 447.597 434.416 425.152C434.416 402.708 418.96 388.32 395.117 388.32ZM394.624 450.803H381.552V399.337H394.624C411.642 399.337 420.768 409.285 420.768 425.152C420.768 441.02 411.642 450.803 394.624 450.803Z" fill="white"/>
<path d="M502.656 388.32H488.926V461.984H502.656V388.32Z" fill="white"/>
<path d="M592.433 445.788L569.495 388.32H555.107L585.691 461.902H598.763L629.347 388.32H615.371L592.433 445.788Z" fill="white"/>
<path d="M681.807 461.902H734.67V450.803H695.29V429.674H730.971V418.74H695.29V399.337H734.67V388.32H681.807V461.902Z" fill="white"/>
<path d="M824.367 420.449L810.226 417.407C802.991 415.845 799.538 412.721 799.538 407.788C799.538 401.704 805.458 397.594 814.172 397.594C823.792 397.594 828.971 401.951 831.026 407.459H844.756C841.879 395.209 831.602 387.07 814.008 387.07C797.647 387.07 786.466 396.443 786.466 408.939C786.466 421.436 795.428 426.369 806.609 428.753L820.339 431.795C828.807 433.603 832.095 436.563 832.095 441.743C832.095 448.567 825.929 452.677 816.392 452.677C807.595 452.677 800.689 449.224 798.058 441.661H784.082C786.96 455.308 799.209 463.201 816.392 463.201C833.575 463.201 845.249 454.65 845.249 440.921C845.249 429.904 836.946 423.162 824.285 420.531L824.367 420.449Z" fill="white"/>
<path d="M1157.5 461.902H1171.23V432.058H1206.66V421.124H1171.23V399.337H1209.21V388.32H1157.5V461.902Z" fill="white"/>
<path d="M1283.78 388.32L1252.62 461.984H1266.43L1274.73 441.595H1305.73L1314.03 461.984H1328.01L1296.93 388.32H1283.78ZM1279.17 430.743L1290.27 403.53L1301.37 430.743H1279.25H1279.17Z" fill="white"/>
<path d="M1439.41 410.354C1439.41 395.966 1428.64 388.32 1411.87 388.32H1380.62V461.984H1394.35V432.141H1404.14L1426.67 461.984H1442.2L1418.77 431.647C1431.6 429.839 1439.49 422.768 1439.49 410.436L1439.41 410.354ZM1394.27 421.617V399.09H1411.54C1420.66 399.09 1425.76 403.53 1425.76 410.354C1425.76 417.177 1420.66 421.617 1411.54 421.617H1394.27Z" fill="white"/>
<path d="M1508.39 388.32H1494.66V461.984H1508.39V388.32Z" fill="white"/>
<path d="M1650.95 388.32H1637.22V461.984H1650.95V388.32Z" fill="white"/>
<path d="M1743.61 420.449L1729.46 417.407C1722.23 415.845 1718.78 412.721 1718.78 407.788C1718.78 401.704 1724.7 397.594 1733.41 397.594C1743.03 397.594 1748.21 401.951 1750.26 407.459H1763.99C1761.12 395.209 1750.84 387.07 1733.25 387.07C1716.89 387.07 1705.7 396.443 1705.7 408.939C1705.7 421.436 1714.67 426.369 1725.85 428.753L1739.58 431.795C1748.04 433.603 1751.33 436.563 1751.33 441.743C1751.33 448.567 1745.17 452.677 1735.63 452.677C1726.83 452.677 1719.93 449.224 1717.3 441.661H1703.32C1706.2 455.308 1718.45 463.201 1735.63 463.201C1752.81 463.201 1764.49 454.65 1764.49 440.921C1764.49 429.904 1756.18 423.162 1743.52 420.531L1743.61 420.449Z" fill="white"/>
<path d="M1832.72 388.32H1818.99V461.902H1871.61V450.803H1832.72V388.32Z" fill="white"/>
<path d="M1951.28 388.32L1920.12 461.984H1933.93L1942.23 441.595H1973.23L1981.53 461.984H1995.51L1964.35 388.32H1951.19H1951.28ZM1946.67 430.743L1957.77 403.53L1968.87 430.743H1946.75H1946.67Z" fill="white"/>
<path d="M2100 439.375L2060.94 388.32H2048.04V461.902H2061.19V408.298L2102.63 461.902H2113.15V388.32H2100V439.375Z" fill="white"/>
<path d="M2199.23 388.32H2171.93V461.984H2199.23C2223.07 461.984 2238.53 447.597 2238.53 425.152C2238.53 402.708 2223.07 388.32 2199.23 388.32ZM2198.74 450.803H2185.66V399.337H2198.74C2215.75 399.337 2224.88 409.285 2224.88 425.152C2224.88 441.02 2215.75 450.803 2198.74 450.803Z" fill="white"/>
<path d="M2326.92 420.449L2312.77 417.407C2305.54 415.845 2302.09 412.721 2302.09 407.788C2302.09 401.704 2308.01 397.594 2316.72 397.594C2326.34 397.594 2331.52 401.951 2333.58 407.459H2347.31C2344.43 395.209 2334.15 387.07 2316.56 387.07C2300.2 387.07 2289.02 396.443 2289.02 408.939C2289.02 421.436 2297.98 426.369 2309.16 428.753L2322.89 431.795C2331.36 433.603 2334.64 436.563 2334.64 441.743C2334.64 448.567 2328.48 452.677 2318.94 452.677C2310.14 452.677 2303.24 449.224 2300.61 441.661H2286.63C2289.51 455.308 2301.76 463.201 2318.94 463.201C2336.12 463.201 2347.8 454.65 2347.8 440.921C2347.8 429.904 2339.49 423.162 2326.83 420.531L2326.92 420.449Z" fill="white"/>
<path d="M999.726 407.461C988.791 407.461 979.994 414.696 979.912 425.137C979.912 435.496 988.627 442.813 999.561 442.813C1010.5 442.813 1019.29 435.578 1019.37 425.301C1019.37 414.86 1010.66 407.543 999.726 407.461Z" fill="white"/>
</svg>
